<?xml version="1.0" standalone="no"?><!DOCTYPE svg PUBLIC "-//W3C//DTD SVG 1.1//EN" "http://www.w3.org/Graphics/SVG/1.1/DTD/svg11.dtd"><svg xmlns="http://www.w3.org/2000/svg" version="1.1" width="595.361" height="524.684" xmlns:xlink="http://www.w3.org/1999/xlink" xlink="http://www.w3.org/1999/xlink" style="position:relative;overflow:hidden;" viewBox="75.156 233.819 595.361 524.684"><defs><style type="text/css">@import url(https://fonts.googleapis.com/css?family=Source+Sans+Pro:400,400italic,700,700italic:latin);</style></defs><g><g width="50.333" height="53.5" transform="scale(1,1) translate(141.667,330.667)"><g transform="scale(1,1) translate(0,0)" stroke="#717171" fill="#D8D8D8" fill-opacity="0.4" stroke-opacity="0.4"><path d="M7.55,0 L7.55,23.5 L0,23.5 L25.167,53.5 L50.333,23.5 L42.783,23.5 L42.783,0 L7.55,0 z" stroke-width="1" stroke-dasharray="none"/></g></g><g width="56.333" height="53.667" transform="rotate(90,244.667,640.833) scale(1,1) translate(216.5,614)"><g transform="scale(1,1) translate(0,0)" stroke="#717171" fill="#D8D8D8" fill-opacity="0.4980392156862745" stroke-opacity="1"><path d="M6.667,12.707 L6.667,0 L0,26.083 L6.667,52.667 L6.667,39.124 L48.167,39.124 L48.167,52.667 L55.333,26.083 L48.167,0 L48.167,12.707 L6.667,12.707 z" stroke-width="1" stroke-dasharray="none"/></g></g><g width="56.333" height="53.5" transform="rotate(90,166.333,498.583) scale(1,1) translate(138.167,471.833)"><g transform="scale(1,1) translate(0,0)" stroke="#717171" fill="#D8D8D8" fill-opacity="0.4980392156862745" stroke-opacity="1"><path d="M6.667,12.667 L6.667,0 L0,26.167 L6.667,52.5 L6.667,39 L48.167,39 L48.167,52.5 L55.333,26.167 L48.167,0 L48.167,12.667 L6.667,12.667 z" stroke-width="1" stroke-dasharray="none"/></g></g><g width="199.167" height="50" transform="rotate(90,333.583,427.167) scale(1,1) translate(234,402.167)"><g transform="scale(1,1) translate(0,0)" stroke="#717171" fill="#D8D8D8" fill-opacity="0.4" stroke-opacity="0.4"><path d="M23.833,11.833 L23.833,0 L0,24.333 L23.833,49 L23.833,36.333 L172.5,36.333 L172.5,49 L198.167,24.333 L172.5,0 L172.5,11.833 L23.833,11.833 z" stroke-width="1" stroke-dasharray="none"/></g></g><g width="101.667" height="49.833" transform="scale(1,1) translate(403.333,262.833)"><g transform="scale(1,1) translate(0,0)" stroke="#717171" fill="#D8D8D8" fill-opacity="0.4" stroke-opacity="0.4"><path d="M0,7.475 L71.667,7.475 L71.667,0 L101.667,24.917 L71.667,49.833 L71.667,42.358 L0,42.358 L0,7.475 z" stroke-width="1" stroke-dasharray="none"/></g></g><g width="101.667" height="50" transform="scale(1,1) translate(403.333,541.5)"><g transform="scale(1,1) translate(0,0)" stroke="#717171" fill="#D8D8D8" fill-opacity="0.4" stroke-opacity="0.4"><path d="M11.98,11.833 L11.98,0 L0,24.333 L11.98,49 L11.98,36.333 L87.688,36.333 L87.688,49 L100.667,24.333 L87.688,0 L87.688,11.833 L11.98,11.833 z" stroke-width="1" stroke-dasharray="none"/></g></g><g width="305.833" height="75" transform="scale(1,1) translate(91.667,250.333)"><g stroke="#717171" opacity="0.4" stroke-width="1" stroke-dasharray="none" width="305.833" height="75" transform="scale(1,1) translate(0,0)" fill="#FBD585" fill-opacity="0.4" stroke-opacity="0.4"><rect width="305.833" height="75"/></g><g width="300.8333333333333" height="70" transform="scale(1,1) translate(2.5,2.5)"><text width="300.8333333333333" height="18.749996185302734" transform="scale(1,1) translate(0,25.625001907348633)" xml:space="preserve"><tspan xml:space="preserve" text-rendering="optimizeSpeed" style="font-family: Segoe UI,Source Sans Pro,Arial,Helvetica Neue,Helvetica,sans-serif;" font-size="13.88888888888889" font-weight="normal" font-style="normal" fill="#D8D8D8" opacity="1" x="108.932" text-anchor="start" y="14.583" textLength="82.96873474121094">eduVPN Client</tspan></text></g></g><g width="150.167" height="75" transform="scale(1,1) translate(91.667,389.667)"><g stroke="#717171" opacity="1" stroke-width="1" stroke-dasharray="none" width="150.167" height="75" transform="scale(1,1) translate(0,0)" fill="#B7DDE8" fill-opacity="1" stroke-opacity="1"><rect width="150.167" height="75"/></g><g width="145.16666666666666" height="70" transform="scale(1,1) translate(2.5,2.5)"><text width="145.16666666666666" height="18.749996185302734" transform="scale(1,1) translate(0,25.625001907348633)" xml:space="preserve"><tspan xml:space="preserve" text-rendering="optimizeSpeed" style="font-family: Segoe UI,Source Sans Pro,Arial,Helvetica Neue,Helvetica,sans-serif;" font-size="13.88888888888889" font-weight="normal" font-style="normal" fill="#000000" opacity="1" x="19.146" text-anchor="start" y="14.583" textLength="106.8749771118164">Interactive Service</tspan></text></g></g><g width="305.833" height="75" transform="scale(1,1) translate(91.667,529)"><g stroke="#717171" opacity="1" stroke-width="1" stroke-dasharray="none" width="305.833" height="75" transform="scale(1,1) translate(0,0)" fill="#B7DDE8" fill-opacity="1" stroke-opacity="1"><rect width="305.833" height="75"/></g><g width="300.8333333333333" height="70" transform="scale(1,1) translate(2.5,2.5)"><text width="300.8333333333333" height="18.749996185302734" transform="scale(1,1) translate(0,25.625001907348633)" xml:space="preserve"><tspan xml:space="preserve" text-rendering="optimizeSpeed" style="font-family: Segoe UI,Source Sans Pro,Arial,Helvetica Neue,Helvetica,sans-serif;" font-size="13.88888888888889" font-weight="normal" font-style="normal" fill="#000000" opacity="1" x="122.769" text-anchor="start" y="14.583" textLength="55.295127868652344">OpenVPN</tspan></text></g></g><g width="305.833" height="75" transform="scale(1,1) translate(91.667,674)"><g stroke="#717171" opacity="1" stroke-width="1" stroke-dasharray="none" width="305.833" height="75" transform="scale(1,1) translate(0,0)" fill="#B7DDE8" fill-opacity="1" stroke-opacity="1"><rect width="305.833" height="75"/></g><g width="300.8333333333333" height="70" transform="scale(1,1) translate(2.5,2.5)"><text width="300.8333333333333" height="18.749996185302734" transform="scale(1,1) translate(0,25.625001907348633)" xml:space="preserve"><tspan xml:space="preserve" text-rendering="optimizeSpeed" style="font-family: Segoe UI,Source Sans Pro,Arial,Helvetica Neue,Helvetica,sans-serif;" font-size="13.88888888888889" font-weight="normal" font-style="normal" fill="#000000" opacity="1" x="105.66" text-anchor="start" y="14.583" textLength="89.51387786865234">TUN/TAP Driver</tspan></text></g></g><g width="150.167" height="355.5" transform="scale(1,1) translate(510.833,250.333)"><g stroke="#717171" opacity="0.4" stroke-width="1" stroke-dasharray="none" width="150.167" height="355.5" transform="scale(1,1) translate(0,0)" fill="#FBD585" fill-opacity="0.4" stroke-opacity="0.4"><rect width="150.167" height="355.5"/></g><g width="145.16666666666666" height="350.5" transform="scale(1,1) translate(2.5,2.5)"><text width="145.16666666666666" height="18.749996185302734" transform="scale(1,1) translate(0,165.87500190734863)" xml:space="preserve"><tspan xml:space="preserve" text-rendering="optimizeSpeed" style="font-family: Segoe UI,Source Sans Pro,Arial,Helvetica Neue,Helvetica,sans-serif;" font-size="13.88888888888889" font-weight="normal" font-style="normal" fill="#D8D8D8" opacity="1" x="23.911" text-anchor="start" y="14.583" textLength="97.34373474121094">eduVPN Provider</tspan></text></g></g></g></svg>