<?xml version="1.0" encoding="utf-8"?>
<!-- Generator: Adobe Illustrator 15.0.0, SVG Export Plug-In . SVG Version: 6.00 Build 0)  -->
<!DOCTYPE svg PUBLIC "-//W3C//DTD SVG 1.1//EN" "http://www.w3.org/Graphics/SVG/1.1/DTD/svg11.dtd">
<svg version="1.1" id="Layer_1" xmlns="http://www.w3.org/2000/svg" xmlns:xlink="http://www.w3.org/1999/xlink" x="0px" y="0px"
	 width="311.81152px" height="198.4248px" viewBox="0 0 311.81152 198.4248" enable-background="new 0 0 311.81152 198.4248"
	 xml:space="preserve">
<g>
	<polygon fill-rule="evenodd" clip-rule="evenodd" fill="#E1EBF3" points="14.20508,78.01172 14.20508,120.31445 
		127.52539,120.31445 127.52539,78.01172 14.20508,78.01172 	"/>
	<polygon fill="none" stroke="#7F7F7F" stroke-width="0.29861" stroke-linecap="square" stroke-miterlimit="10" points="
		14.20508,120.31445 127.52539,120.31445 127.52539,78.01172 14.20508,78.01172 14.20508,120.31445 	"/>
	<text transform="matrix(1.00395 0 0 1 21.51465 102.80762)" font-family="'Calibri'" font-size="11.94445">.</text>
	<text transform="matrix(1.00395 0 0 1 24.6084 102.80762)"><tspan x="0" y="0" font-family="'Calibri'" font-size="11.94445">N</tspan><tspan x="7.67428" y="0" font-family="'Calibri'" font-size="11.94445">E</tspan><tspan x="13.54222" y="0" font-family="'Calibri'" font-size="11.94445">T</tspan><tspan x="19.41065" y="0" font-family="'Calibri'" font-size="11.94445"> F</tspan><tspan x="27.57519" y="0" font-family="'Calibri'" font-size="11.94445">r</tspan><tspan x="31.75156" y="0" font-family="'Calibri'" font-size="11.94445">a</tspan><tspan x="37.52077" y="0" font-family="'Calibri'" font-size="11.94445">m</tspan><tspan x="47.07436" y="0" font-family="'Calibri'" font-size="11.94445">e</tspan><tspan x="53.04103" y="0" font-family="'Calibri'" font-size="11.94445">w</tspan><tspan x="61.59173" y="0" font-family="'Calibri'" font-size="11.94445">o</tspan><tspan x="67.86627" y="0" font-family="'Calibri'" font-size="11.94445">r</tspan><tspan x="72.04265" y="0" font-family="'Calibri'" font-size="11.94445">k</tspan><tspan x="77.50837" y="0" font-family="'Calibri'" font-size="11.94445"> </tspan></text>
	<text transform="matrix(1.00395 0 0 1 104.95215 102.80762)" font-family="'Calibri'" font-size="11.94445">4</text>
	<text transform="matrix(1.00395 0 0 1 111.0459 102.80762)" font-family="'Calibri'" font-size="11.94445">.</text>
	<text transform="matrix(1.00395 0 0 1 114.0459 102.80762)" font-family="'Calibri'" font-size="11.94445">5</text>
	<polygon fill-rule="evenodd" clip-rule="evenodd" fill="#EFF2E6" points="184.18555,78.01172 184.18555,120.31445 
		297.60645,120.31445 297.60645,78.01172 184.18555,78.01172 	"/>
	<polygon fill="none" stroke="#7F7F7F" stroke-width="0.29861" stroke-linecap="square" stroke-miterlimit="10" points="
		184.18555,120.31445 297.60645,120.31445 297.60645,78.01172 184.18555,78.01172 184.18555,120.31445 	"/>
	<text transform="matrix(1.00395 0 0 1 217.27246 95.64355)"><tspan x="0.00001" y="0" font-family="'Calibri'" font-size="11.94445">O</tspan><tspan x="7.87224" y="0" font-family="'Calibri'" font-size="11.94445">p</tspan><tspan x="14.14824" y="0" font-family="'Calibri'" font-size="11.94445">e</tspan><tspan x="20.11491" y="0" font-family="'Calibri'" font-size="11.94445">nVP</tspan><tspan x="39.33783" y="0" font-family="'Calibri'" font-size="11.94445">N</tspan><tspan x="47.09625" y="0" font-family="'Calibri'" font-size="11.94445"> </tspan></text>
	<text transform="matrix(1.00395 0 0 1 209.78809 109.97168)"><tspan x="0" y="0" font-family="'Calibri'" font-size="11.94445">C</tspan><tspan x="6.3684" y="0" font-family="'Calibri'" font-size="11.94445">o</tspan><tspan x="12.64343" y="0" font-family="'Calibri'" font-size="11.94445">m</tspan><tspan x="22.19749" y="0" font-family="'Calibri'" font-size="11.94445">p</tspan><tspan x="28.47252" y="0" font-family="'Calibri'" font-size="11.94445">o</tspan><tspan x="34.74754" y="0" font-family="'Calibri'" font-size="11.94445">n</tspan><tspan x="41.02354" y="0" font-family="'Calibri'" font-size="11.94445">e</tspan><tspan x="46.99021" y="0" font-family="'Calibri'" font-size="11.94445">n</tspan><tspan x="53.26524" y="0" font-family="'Calibri'" font-size="11.94445">t</tspan><tspan x="57.25437" y="0" font-family="'Calibri'" font-size="11.94445">s</tspan></text>
	<polygon fill-rule="evenodd" clip-rule="evenodd" fill="#EFF2E6" points="184.18555,141.51563 184.18555,183.91797 
		297.60645,183.91797 297.60645,141.51563 184.18555,141.51563 	"/>
	<polygon fill="none" stroke="#7F7F7F" stroke-width="0.29861" stroke-linecap="square" stroke-miterlimit="10" points="
		184.18555,183.91797 297.60645,183.91797 297.60645,141.51563 184.18555,141.51563 184.18555,183.91797 	"/>
	<text transform="matrix(1.00395 0 0 1 202.18652 166.30762)"><tspan x="0" y="0" font-family="'Calibri'" font-size="11.94445">T</tspan><tspan x="5.86843" y="0" font-family="'Calibri'" font-size="11.94445">UN</tspan></text>
	<text transform="matrix(1.00395 0 0 1 223.46777 166.30762)" font-family="'Calibri'" font-size="11.94445">/</text>
	<text transform="matrix(1.00395 0 0 1 228.06934 166.30762)"><tspan x="0" y="0" font-family="'Calibri'" font-size="11.94445">T</tspan><tspan x="5.86843" y="0" font-family="'Calibri'" font-size="11.94445">A</tspan><tspan x="12.74362" y="0" font-family="'Calibri'" font-size="11.94445">P</tspan><tspan x="18.91457" y="0" font-family="'Calibri'" font-size="11.94445"> </tspan><tspan x="21.60219" y="0" font-family="'Calibri'" font-size="11.94445">Dr</tspan><tspan x="33.13964" y="0" font-family="'Calibri'" font-size="11.94445">i</tspan><tspan x="35.91676" y="0" font-family="'Calibri'" font-size="11.94445">v</tspan><tspan x="41.29882" y="0" font-family="'Calibri'" font-size="11.94445">e</tspan><tspan x="47.26647" y="0" font-family="'Calibri'" font-size="11.94445">r</tspan></text>
	<polygon fill-rule="evenodd" clip-rule="evenodd" fill="#FAE9DC" points="14.20508,14.50684 14.20508,56.81006 297.60645,56.81006 
		297.60645,14.50684 14.20508,14.50684 	"/>
	<polygon fill="none" stroke="#7F7F7F" stroke-width="0.29861" stroke-linecap="square" stroke-miterlimit="10" points="
		14.20508,56.81006 297.60645,56.81006 297.60645,14.50684 14.20508,14.50684 14.20508,56.81006 	"/>
	<text transform="matrix(1.00395 0 0 1 120.74121 39.19824)"><tspan x="0" y="0" font-family="'Calibri'" font-size="11.94445">e</tspan><tspan x="5.96716" y="0" font-family="'Calibri'" font-size="11.94445">duVP</tspan><tspan x="31.46559" y="0" font-family="'Calibri'" font-size="11.94445">N</tspan><tspan x="39.22304" y="0" font-family="'Calibri'" font-size="11.94445"> </tspan><tspan x="41.91164" y="0" font-family="'Calibri'" font-size="11.94445">C</tspan><tspan x="48.28102" y="0" font-family="'Calibri'" font-size="11.94445">li</tspan><tspan x="53.83429" y="0" font-family="'Calibri'" font-size="11.94445">e</tspan><tspan x="59.80193" y="0" font-family="'Calibri'" font-size="11.94445">nt</tspan></text>
	<polygon fill-rule="evenodd" clip-rule="evenodd" fill="#F2F2F2" points="70.86523,73.73145 77.96045,68.05762 73.26367,68.05762 
		73.26367,61.09033 68.4668,61.09033 68.4668,68.05762 63.77002,68.05762 70.86523,73.73145 	"/>
	<polygon fill="none" stroke="#7F7F7F" stroke-width="0.29861" stroke-linecap="square" stroke-miterlimit="10" points="
		70.86523,73.73145 77.96045,68.05762 73.26367,68.05762 73.26367,61.09033 68.4668,61.09033 68.4668,68.05762 63.77002,68.05762 
		70.86523,73.73145 	"/>
	<polygon fill-rule="evenodd" clip-rule="evenodd" fill="#F2F2F2" points="240.84668,73.73145 247.94141,68.05762 
		243.34473,68.05762 243.34473,61.09033 238.44824,61.09033 238.44824,68.05762 233.85156,68.05762 240.84668,73.73145 	"/>
	<polygon fill="none" stroke="#7F7F7F" stroke-width="0.29861" stroke-linecap="square" stroke-miterlimit="10" points="
		240.84668,73.73145 247.94141,68.05762 243.34473,68.05762 243.34473,61.09033 238.44824,61.09033 238.44824,68.05762 
		233.85156,68.05762 240.84668,73.73145 	"/>
	<polygon fill-rule="evenodd" clip-rule="evenodd" fill="#F2F2F2" points="240.84668,137.33594 247.94141,131.5625 
		243.34473,131.5625 243.34473,124.5957 238.44824,124.5957 238.44824,131.5625 233.85156,131.5625 240.84668,137.33594 	"/>
	<polygon fill="none" stroke="#7F7F7F" stroke-width="0.29861" stroke-linecap="square" stroke-miterlimit="10" points="
		240.84668,137.33594 247.94141,131.5625 243.34473,131.5625 243.34473,124.5957 238.44824,124.5957 238.44824,131.5625 
		233.85156,131.5625 240.84668,137.33594 	"/>
</g>
</svg>
