<?xml version="1.0" encoding="utf-8"?>
<!-- Generator: Adobe Illustrator 15.0.0, SVG Export Plug-In . SVG Version: 6.00 Build 0)  -->
<!DOCTYPE svg PUBLIC "-//W3C//DTD SVG 1.1//EN" "http://www.w3.org/Graphics/SVG/1.1/DTD/svg11.dtd">
<svg version="1.1" id="Layer_1" xmlns="http://www.w3.org/2000/svg" xmlns:xlink="http://www.w3.org/1999/xlink" x="0px" y="0px"
	 width="311.81152px" height="212.59863px" viewBox="0 0 311.81152 212.59863" enable-background="new 0 0 311.81152 212.59863"
	 xml:space="preserve">
<g>
	<polygon fill-rule="evenodd" clip-rule="evenodd" fill="#E1EBF3" points="14.20508,85.11377 14.20508,127.38672 
		141.71582,127.38672 141.71582,85.11377 14.20508,85.11377 	"/>
	<polygon fill="none" stroke="#7F7F7F" stroke-width="0.2984" stroke-linecap="square" stroke-miterlimit="10" points="
		14.20508,127.38672 141.71582,127.38672 141.71582,85.11377 14.20508,85.11377 14.20508,127.38672 	"/>
	<text transform="matrix(1.00467 0 0 1 28.60059 109.87793)" font-family="'Calibri'" font-size="11.93583">.</text>
	<text transform="matrix(1.00467 0 0 1 31.60059 109.87793)"><tspan x="0" y="0" font-family="'Calibri'" font-size="11.93583">N</tspan><tspan x="7.75234" y="0" font-family="'Calibri'" font-size="11.93583">E</tspan><tspan x="13.61605" y="0" font-family="'Calibri'" font-size="11.93583">T</tspan><tspan x="19.48024" y="0" font-family="'Calibri'" font-size="11.93583"> F</tspan><tspan x="27.63889" y="0" font-family="'Calibri'" font-size="11.93583">r</tspan><tspan x="31.81226" y="0" font-family="'Calibri'" font-size="11.93583">a</tspan><tspan x="37.5773" y="0" font-family="'Calibri'" font-size="11.93583">m</tspan><tspan x="47.124" y="0" font-family="'Calibri'" font-size="11.93583">e</tspan><tspan x="53.08636" y="0" font-family="'Calibri'" font-size="11.93583">w</tspan><tspan x="61.63041" y="0" font-family="'Calibri'" font-size="11.93583">o</tspan><tspan x="67.90091" y="0" font-family="'Calibri'" font-size="11.93583">r</tspan><tspan x="72.07428" y="0" font-family="'Calibri'" font-size="11.93583">k</tspan><tspan x="77.53606" y="0" font-family="'Calibri'" font-size="11.93583"> </tspan></text>
	<text transform="matrix(1.00467 0 0 1 112.05371 109.87793)" font-family="'Calibri'" font-size="11.93583">4</text>
	<text transform="matrix(1.00467 0 0 1 118.14746 109.87793)" font-family="'Calibri'" font-size="11.93583">.</text>
	<text transform="matrix(1.00467 0 0 1 121.13965 109.87793)" font-family="'Calibri'" font-size="11.93583">5</text>
	<polygon fill-rule="evenodd" clip-rule="evenodd" fill="#EFF2E6" points="169.99609,85.11377 169.99609,127.38672 
		297.60645,127.38672 297.60645,85.11377 169.99609,85.11377 	"/>
	<polygon fill="none" stroke="#7F7F7F" stroke-width="0.2984" stroke-linecap="square" stroke-miterlimit="10" points="
		169.99609,127.38672 297.60645,127.38672 297.60645,85.11377 169.99609,85.11377 169.99609,127.38672 	"/>
	<text transform="matrix(1.00467 0 0 1 177.70215 109.87793)"><tspan x="0" y="0" font-family="'Calibri'" font-size="11.93583">O</tspan><tspan x="7.86655" y="0" font-family="'Calibri'" font-size="11.93583">p</tspan><tspan x="14.13802" y="0" font-family="'Calibri'" font-size="11.93583">e</tspan><tspan x="20.10039" y="0" font-family="'Calibri'" font-size="11.93583">nVP</tspan><tspan x="39.30944" y="0" font-family="'Calibri'" font-size="11.93583">N</tspan><tspan x="47.06227" y="0" font-family="'Calibri'" font-size="11.93583"> </tspan><tspan x="49.74893" y="0" font-family="'Calibri'" font-size="11.93583">C</tspan><tspan x="56.11274" y="0" font-family="'Calibri'" font-size="11.93583">o</tspan><tspan x="62.38324" y="0" font-family="'Calibri'" font-size="11.93583">m</tspan><tspan x="71.92944" y="0" font-family="'Calibri'" font-size="11.93583">p</tspan><tspan x="78.20091" y="0" font-family="'Calibri'" font-size="11.93583">o</tspan><tspan x="84.47141" y="0" font-family="'Calibri'" font-size="11.93583">n</tspan><tspan x="90.74191" y="0" font-family="'Calibri'" font-size="11.93583">e</tspan><tspan x="96.70525" y="0" font-family="'Calibri'" font-size="11.93583">n</tspan><tspan x="102.97575" y="0" font-family="'Calibri'" font-size="11.93583">t</tspan><tspan x="106.962" y="0" font-family="'Calibri'" font-size="11.93583">s</tspan></text>
	<polygon fill-rule="evenodd" clip-rule="evenodd" fill="#EFF2E6" points="169.99609,155.63477 169.99609,198.00586 
		297.60645,198.00586 297.60645,155.63477 169.99609,155.63477 	"/>
	<polygon fill="none" stroke="#7F7F7F" stroke-width="0.2984" stroke-linecap="square" stroke-miterlimit="10" points="
		169.99609,198.00586 297.60645,198.00586 297.60645,155.63477 169.99609,155.63477 169.99609,198.00586 	"/>
	<text transform="matrix(1.00467 0 0 1 195.08496 180.40137)"><tspan x="0" y="0" font-family="'Calibri'" font-size="11.93583">T</tspan><tspan x="5.8642" y="0" font-family="'Calibri'" font-size="11.93583">UN</tspan></text>
	<text transform="matrix(1.00467 0 0 1 216.37402 180.40137)" font-family="'Calibri'" font-size="11.93583">/</text>
	<text transform="matrix(1.00467 0 0 1 220.97559 180.40137)"><tspan x="0" y="0" font-family="'Calibri'" font-size="11.93583">T</tspan><tspan x="5.86419" y="0" font-family="'Calibri'" font-size="11.93583">A</tspan><tspan x="12.73443" y="0" font-family="'Calibri'" font-size="11.93583">P</tspan><tspan x="18.90092" y="0" font-family="'Calibri'" font-size="11.93583"> </tspan><tspan x="21.58661" y="0" font-family="'Calibri'" font-size="11.93583">Dr</tspan><tspan x="33.11573" y="0" font-family="'Calibri'" font-size="11.93583">i</tspan><tspan x="35.89085" y="0" font-family="'Calibri'" font-size="11.93583">v</tspan><tspan x="41.26904" y="0" font-family="'Calibri'" font-size="11.93583">e</tspan><tspan x="47.23237" y="0" font-family="'Calibri'" font-size="11.93583">r</tspan></text>
	<polygon fill-rule="evenodd" clip-rule="evenodd" fill="#FAE9DC" points="14.20508,14.59277 14.20508,56.86572 297.60645,56.86572 
		297.60645,14.59277 14.20508,14.59277 	"/>
	<polygon fill="none" stroke="#7F7F7F" stroke-width="0.2984" stroke-linecap="square" stroke-miterlimit="10" points="
		14.20508,56.86572 297.60645,56.86572 297.60645,14.59277 14.20508,14.59277 14.20508,56.86572 	"/>
	<text transform="matrix(1.00467 0 0 1 120.74121 39.26074)"><tspan x="0" y="0" font-family="'Calibri'" font-size="11.93583">e</tspan><tspan x="5.96285" y="0" font-family="'Calibri'" font-size="11.93583">duVP</tspan><tspan x="31.44289" y="0" font-family="'Calibri'" font-size="11.93583">N</tspan><tspan x="39.19474" y="0" font-family="'Calibri'" font-size="11.93583"> </tspan><tspan x="41.88141" y="0" font-family="'Calibri'" font-size="11.93583">C</tspan><tspan x="48.24619" y="0" font-family="'Calibri'" font-size="11.93583">li</tspan><tspan x="53.79545" y="0" font-family="'Calibri'" font-size="11.93583">e</tspan><tspan x="59.75879" y="0" font-family="'Calibri'" font-size="11.93583">nt</tspan></text>
	<polygon fill-rule="evenodd" clip-rule="evenodd" fill="#F2F2F2" points="77.96045,77.35547 85.05518,71.58643 80.3584,71.58643 
		80.3584,64.62402 75.56201,64.62402 75.56201,71.58643 70.86523,71.58643 77.96045,77.35547 	"/>
	<polygon fill="none" stroke="#7F7F7F" stroke-width="0.2984" stroke-linecap="square" stroke-miterlimit="10" points="
		77.96045,77.35547 85.05518,71.58643 80.3584,71.58643 80.3584,64.62402 75.56201,64.62402 75.56201,71.58643 70.86523,71.58643 
		77.96045,77.35547 	"/>
	<polygon fill-rule="evenodd" clip-rule="evenodd" fill="#F2F2F2" points="233.85156,77.35547 240.84668,71.58643 236.25,71.58643 
		236.25,64.62402 231.35254,64.62402 231.35254,71.58643 226.75586,71.58643 233.85156,77.35547 	"/>
	<polygon fill="none" stroke="#7F7F7F" stroke-width="0.2984" stroke-linecap="square" stroke-miterlimit="10" points="
		233.85156,77.35547 240.84668,71.58643 236.25,71.58643 236.25,64.62402 231.35254,64.62402 231.35254,71.58643 
		226.75586,71.58643 233.85156,77.35547 	"/>
	<polygon fill-rule="evenodd" clip-rule="evenodd" fill="#F2F2F2" points="233.85156,147.87695 240.84668,142.20703 
		236.25,142.20703 236.25,135.14453 231.35254,135.14453 231.35254,142.20703 226.75586,142.20703 233.85156,147.87695 	"/>
	<polygon fill="none" stroke="#7F7F7F" stroke-width="0.2984" stroke-linecap="square" stroke-miterlimit="10" points="
		233.85156,147.87695 240.84668,142.20703 236.25,142.20703 236.25,135.14453 231.35254,135.14453 231.35254,142.20703 
		226.75586,142.20703 233.85156,147.87695 	"/>
</g>
</svg>
