<?xml version="1.0" encoding="utf-8"?>
<!-- Generator: Adobe Illustrator 15.0.0, SVG Export Plug-In . SVG Version: 6.00 Build 0)  -->
<!DOCTYPE svg PUBLIC "-//W3C//DTD SVG 1.1//EN" "http://www.w3.org/Graphics/SVG/1.1/DTD/svg11.dtd">
<svg version="1.1" id="Layer_1" xmlns="http://www.w3.org/2000/svg" xmlns:xlink="http://www.w3.org/1999/xlink" x="0px" y="0px"
	 width="170.079px" height="170.078px" viewBox="0 0 170.079 170.078" enable-background="new 0 0 170.079 170.078"
	 xml:space="preserve">
<path d="M155.347,76.161c-0.19-0.217-0.394-0.436-0.616-0.658l-19.727-19.726c-0.229-0.229-0.459-0.443-0.689-0.645
	c-3.969-3.524-10.713-6.2-15.833-6.2H97.761c-0.749-4.952-3.386-10.62-6.623-13.857L71.411,15.348
	c-0.229-0.229-0.459-0.443-0.689-0.645c-3.969-3.524-10.713-6.2-15.833-6.2H19.843c-6.252,0-11.338,5.087-11.338,11.339v89.965
	c0,6.252,5.086,11.34,11.338,11.34h52.255v29.09c0,6.252,5.086,11.34,11.338,11.34h66.8c6.252,0,11.339-5.088,11.339-11.34V92.025
	C161.575,86.895,158.885,80.128,155.347,76.161z M129.822,60.271c0-0.607,0.062-1.048,0.13-1.346
	c0.172,0.106,0.391,0.268,0.641,0.484c0.139,0.125,0.277,0.25,0.404,0.376l19.727,19.727c0.124,0.124,0.247,0.262,0.369,0.398
	c0.221,0.253,0.383,0.473,0.49,0.646c-0.297,0.069-0.738,0.13-1.346,0.13h-14.746c-3.125,0-5.669-2.543-5.669-5.669V60.271z
	 M66.228,19.842c0-0.607,0.061-1.048,0.13-1.346c0.174,0.108,0.394,0.271,0.647,0.491c0.136,0.122,0.272,0.244,0.396,0.368
	l19.729,19.728c0.195,0.194,0.385,0.422,0.574,0.646c0.117,0.149,0.215,0.285,0.285,0.399c-0.297,0.069-0.738,0.13-1.346,0.13
	H71.897c-3.126,0-5.669-2.543-5.669-5.669V19.842z M72.098,60.271v55.204H19.843c-3.126,0-5.669-2.543-5.669-5.668V19.842
	c0-3.126,2.543-5.669,5.669-5.669H54.89c1.898,0,4.255,0.575,6.495,1.481c-0.508,1.063-0.825,2.438-0.825,4.188v14.747
	c0,6.252,5.086,11.339,11.338,11.339h14.746c1.819,0,3.173-0.332,4.185-0.813c0.514,1.271,0.926,2.577,1.18,3.818h-8.571
	C77.184,48.933,72.098,54.02,72.098,60.271z M155.907,150.236c0,3.125-2.544,5.668-5.67,5.668h-66.8
	c-3.126,0-5.669-2.543-5.669-5.668V60.271c0-3.126,2.543-5.669,5.669-5.669h35.047c1.897,0,4.255,0.575,6.495,1.481
	c-0.508,1.063-0.825,2.438-0.825,4.188v14.746c0,6.252,5.087,11.338,11.339,11.338h14.745c1.824,0,3.179-0.334,4.191-0.815
	c0.903,2.235,1.478,4.59,1.478,6.485V150.236z"/>
</svg>
