<?xml version="1.0" encoding="utf-8"?>
<!-- Generator: Adobe Illustrator 15.0.0, SVG Export Plug-In . SVG Version: 6.00 Build 0)  -->
<!DOCTYPE svg PUBLIC "-//W3C//DTD SVG 1.1//EN" "http://www.w3.org/Graphics/SVG/1.1/DTD/svg11.dtd">
<svg version="1.1" id="Layer_1" xmlns="http://www.w3.org/2000/svg" xmlns:xlink="http://www.w3.org/1999/xlink" x="0px" y="0px"
	 width="170.0791px" height="170.07813px" viewBox="0 0 170.0791 170.07813" enable-background="new 0 0 170.0791 170.07813"
	 xml:space="preserve">
<path d="M156.73584,73.49902l-19.72656-19.72656c-4.37451-4.375-12.33936-7.67383-18.52637-7.67383h-18.40137
	c-1.20459-4.86816-3.78906-9.87793-6.93896-13.02832L73.41602,13.34277c-4.37451-4.375-12.33936-7.67383-18.52637-7.67383H19.84277
	c-7.81494,0-14.17334,6.35742-14.17334,14.17285v89.96484c0,7.81543,6.3584,14.17285,14.17334,14.17285H69.2627v26.25684
	c0,7.81543,6.3584,14.17285,14.17334,14.17285h66.80029c7.81494,0,14.17334-6.35742,14.17334-14.17285V92.02539
	C164.40967,85.83887,161.11084,77.87402,156.73584,73.49902z M126.9873,60.25391c0.78418,0.48828,1.47607,1.00781,2.00391,1.53613
	l19.72656,19.72656c0.52832,0.52832,1.04883,1.2207,1.5376,2.00586h-20.43359c-1.53662,0-2.83447-1.29883-2.83447-2.83496V60.25391z
	 M63.39404,19.82422c0.78467,0.48828,1.47607,1.00781,2.00391,1.53613l19.72656,19.72754
	c0.52881,0.52832,1.04932,1.2207,1.5376,2.00586H66.22852c-1.53662,0-2.83447-1.29883-2.83447-2.83496V19.82422z M19.84277,112.6416
	c-1.53662,0-2.83447-1.29883-2.83447-2.83496V19.8418c0-1.53613,1.29785-2.83496,2.83447-2.83496h32.2124v23.25195
	c0,7.81543,6.3584,14.17285,14.17334,14.17285h4.30811c-0.81055,1.7832-1.27393,3.75684-1.27393,5.83984v52.37012H19.84277z
	 M153.0708,150.23633c0,1.53613-1.29785,2.83496-2.83447,2.83496H83.43604c-1.53662,0-2.83447-1.29883-2.83447-2.83496V60.27148
	c0-1.53613,1.29785-2.83496,2.83447-2.83496h32.2124V80.6875c0,7.81543,6.3584,14.17285,14.17334,14.17285h23.24902V150.23633z"/>
</svg>
