<?xml version="1.0" encoding="utf-8"?>
<!-- Generator: Adobe Illustrator 15.0.0, SVG Export Plug-In . SVG Version: 6.00 Build 0)  -->
<!DOCTYPE svg PUBLIC "-//W3C//DTD SVG 1.1//EN" "http://www.w3.org/Graphics/SVG/1.1/DTD/svg11.dtd">
<svg version="1.1" id="Layer_1" xmlns="http://www.w3.org/2000/svg" xmlns:xlink="http://www.w3.org/1999/xlink" x="0px" y="0px"
	 width="170.079px" height="170.078px" viewBox="0 0 170.079 170.078" enable-background="new 0 0 170.079 170.078"
	 xml:space="preserve">
<path d="M155.347,76.161c-0.19-0.217-0.393-0.436-0.616-0.658l-19.727-19.726c-0.229-0.229-0.459-0.443-0.689-0.645
	c-3.969-3.524-10.713-6.2-15.833-6.2H97.761c-0.749-4.952-3.386-10.62-6.623-13.857L71.411,15.348
	c-0.229-0.229-0.459-0.443-0.689-0.645c-3.969-3.524-10.713-6.2-15.833-6.2H19.843c-6.252,0-11.338,5.087-11.338,11.339v89.965
	c0,6.252,5.086,11.339,11.338,11.339h52.255v29.091c0,6.252,5.086,11.339,11.338,11.339h66.8c6.252,0,11.338-5.087,11.338-11.339
	V92.025C161.575,86.894,158.885,80.128,155.347,76.161z"/>
<path fill="#FFFFFF" d="M150.723,79.512c0.124,0.124,0.247,0.262,0.37,0.398c0.22,0.253,0.382,0.473,0.49,0.646
	c-0.297,0.069-0.739,0.13-1.346,0.13h-14.746c-3.126,0-5.669-2.543-5.669-5.669V60.271c0-0.607,0.061-1.048,0.13-1.346
	c0.172,0.106,0.39,0.268,0.64,0.484c0.139,0.125,0.278,0.25,0.404,0.376L150.723,79.512z"/>
<path fill="#FFFFFF" d="M87.129,39.083c0.195,0.194,0.385,0.422,0.575,0.646c0.117,0.149,0.214,0.285,0.285,0.399
	c-0.297,0.069-0.739,0.13-1.346,0.13H71.897c-3.126,0-5.669-2.543-5.669-5.669V19.842c0-0.607,0.061-1.048,0.13-1.346
	c0.174,0.108,0.394,0.271,0.647,0.491c0.136,0.122,0.272,0.244,0.396,0.368L87.129,39.083z"/>
<path fill="#FFFFFF" d="M72.098,60.271v55.204H19.843c-3.126,0-5.669-2.543-5.669-5.669V19.842c0-3.126,2.543-5.669,5.669-5.669
	H54.89c1.898,0,4.255,0.575,6.495,1.481c-0.508,1.063-0.825,2.438-0.825,4.188v14.747c0,6.252,5.086,11.339,11.338,11.339h14.746
	c1.82,0,3.173-0.332,4.185-0.813c0.513,1.271,0.925,2.577,1.18,3.818h-8.572C77.184,48.933,72.098,54.02,72.098,60.271z"/>
<path fill="#FFFFFF" d="M155.906,150.236c0,3.126-2.543,5.669-5.669,5.669h-66.8c-3.126,0-5.669-2.543-5.669-5.669V60.271
	c0-3.126,2.543-5.669,5.669-5.669h35.047c1.898,0,4.255,0.575,6.495,1.481c-0.508,1.063-0.825,2.438-0.825,4.188v14.746
	c0,6.252,5.086,11.339,11.338,11.339h14.746c1.824,0,3.179-0.334,4.191-0.816c0.904,2.236,1.478,4.59,1.478,6.485V150.236z"/>
</svg>
