<?xml version="1.0" encoding="utf-8"?>
<!-- Generator: Adobe Illustrator 15.0.0, SVG Export Plug-In . SVG Version: 6.00 Build 0)  -->
<!DOCTYPE svg PUBLIC "-//W3C//DTD SVG 1.1//EN" "http://www.w3.org/Graphics/SVG/1.1/DTD/svg11.dtd">
<svg version="1.1" id="Layer_1" xmlns="http://www.w3.org/2000/svg" xmlns:xlink="http://www.w3.org/1999/xlink" x="0px" y="0px"
	 width="680.32px" height="680.32px" viewBox="-340.5 340.5 680.32 680.32" enable-background="new -340.5 340.5 680.32 680.32"
	 xml:space="preserve">
<path d="M227.829,437.868L6.477,386.85l-6.658-1.549l-6.658,1.549l-221.752,51.019L-340.5,463.635l102.137,29.863v58.076
	l53.266,16.645v-59.207l14.981,4.494v303.881l2.83,5.826C-121.028,926.964-15.895,969.81-11.451,971.591l11.169,4.428l11.136-4.444
	c4.444-1.781,109.511-44.627,155.752-148.362l2.863-5.825V513.473l60.273-17.645l110.077-32.176L227.829,437.868z"/>
<path fill="#ED6B06" d="M63.388,652.896c-22.62-0.004-44.696-6.94-63.253-19.875c-18.446,12.944-40.436,19.884-62.97,19.875
	c-4.781,0.002-9.557-0.304-14.299-0.916c-22.642-4.159-44.137-13.097-63.053-26.217v45.143l0,0v140.105
	C-98.574,904.842-0.265,943.76-0.265,943.76s96.445-38.918,139.723-132.748V688.633l0,0v-61.971
	c-18.665,12.529-39.681,21.138-61.772,25.301C72.945,652.579,68.169,652.891,63.388,652.896z"/>
<path fill="#ED6B06" d="M-0.248,416.045l-221.852,51.02l81.946,23.969v48.771c13.246-2.816,26.741-4.295,40.282-4.41
	c31.993,0,66.583,9.238,100.057,37.785c32.192-27.482,68.612-34.955,99.557-34.955c13.33,0.088,26.628,1.313,39.75,3.661v-50.853
	l81.862-23.969L-0.248,416.045z"/>
<path fill="#FFFFFF" d="M-0.332,659.12v257.657c0,0,69.912-35.188,116.519-103.203V665.679
	c-12.336,5.926-25.415,10.159-38.885,12.584C49.945,681.761,22.266,674.936-0.332,659.12z"/>
<path fill="#FFFFFF" d="M160.314,576.01l-38.284,25.934c-14.724,9.995-31.312,16.919-48.772,20.357
	c-3.284,0.418-6.592,0.629-9.903,0.633c-15.986-0.088-31.603-4.825-44.943-13.633l-7.341-5.992l8.605-7.357
	c21.873-18.677,47.973-27.748,79.783-27.748c11.552,0.053,23.076,1.129,34.439,3.212L160.314,576.01z"/>
<path fill="#FFFFFF" d="M-10.918,602.792l-7.341,6.509c-13.203,8.767-28.679,13.487-44.527,13.582
	c-3.339,0.014-6.675-0.191-9.987-0.615c-17.839-3.484-34.756-10.65-49.67-21.04l-37.819-26.5l26.633-5.609
	c11.141-2.428,22.504-3.688,33.907-3.762c30.045,0,56.378,9.987,80.498,30.511L-10.918,602.792z"/>
</svg>
