<?xml version="1.0" encoding="utf-8"?>
<!-- Generator: Adobe Illustrator 15.0.0, SVG Export Plug-In . SVG Version: 6.00 Build 0)  -->
<!DOCTYPE svg PUBLIC "-//W3C//DTD SVG 1.1//EN" "http://www.w3.org/Graphics/SVG/1.1/DTD/svg11.dtd">
<svg version="1.1" id="Layer_1" xmlns="http://www.w3.org/2000/svg" xmlns:xlink="http://www.w3.org/1999/xlink" x="0px" y="0px"
	 width="680.32px" height="680.32px" viewBox="0 0 680.32 680.32" enable-background="new 0 0 680.32 680.32" xml:space="preserve">
<g id="Laag_2">
	<g id="Layer_1_1_">
		<path d="M568.323,97.362L346.973,46.342l-6.661-1.55l-6.66,1.55l-221.75,51.021l-111.91,25.771l102.14,29.859v58.08l53.27,16.65
			v-59.212l14.98,4.49v303.88l2.83,5.83c46.261,103.75,151.391,146.601,155.841,148.38l11.17,4.432l11.14-4.44
			c4.439-1.78,109.51-44.63,155.75-148.358l2.859-5.83V172.964l60.271-17.641l110.08-32.18L568.323,97.362z"/>
		<path fill="#ED6B06" d="M403.884,312.393c-22.621,0-44.701-6.94-63.25-19.881c-18.451,12.94-40.441,19.881-62.971,19.881
			c-4.78,0-9.56-0.302-14.3-0.92c-22.64-4.16-44.14-13.102-63.05-26.222v45.142l0,0v140.109
			c41.61,93.83,139.92,132.75,139.92,132.75s96.438-38.92,139.72-132.75v-122.38l0,0v-61.97c-18.67,12.53-39.681,21.14-61.771,25.3
			C413.443,312.072,408.663,312.382,403.884,312.393z"/>
		<path fill="#ED6B06" d="M340.243,75.542l-221.85,51.011l81.95,23.97v48.77c13.25-2.818,26.74-4.29,40.28-4.409
			c31.99,0,66.58,9.239,100.06,37.789c32.19-27.479,68.61-34.959,99.561-34.959c13.33,0.09,26.63,1.31,39.75,3.659v-50.851
			l81.859-23.97L340.243,75.542z"/>
		<path fill="#FFFFFF" d="M340.163,318.612v257.66c0,0,69.91-35.19,116.521-103.2v-147.9c-12.341,5.932-25.421,10.16-38.88,12.58
			C390.443,341.252,362.763,334.433,340.163,318.612z"/>
		<path fill="#FFFFFF" d="M500.803,235.502l-38.279,25.931c-14.721,10-31.311,16.92-48.771,20.359c-3.279,0.421-6.59,0.63-9.9,0.63
			c-15.988-0.09-31.6-4.819-44.938-13.63l-7.34-5.989l8.608-7.359c21.871-18.682,47.971-27.751,79.78-27.751
			c11.55,0.05,23.08,1.13,34.44,3.21L500.803,235.502z"/>
		<path fill="#FFFFFF" d="M329.573,262.282l-7.34,6.51c-13.2,8.771-28.68,13.49-44.53,13.58c-3.34,0.011-6.68-0.189-9.99-0.62
			c-17.84-3.479-34.76-10.649-49.67-21.039l-37.82-26.5l26.63-5.61c11.14-2.431,22.5-3.689,33.91-3.761
			c30.05,0,56.38,9.99,80.5,30.511L329.573,262.282z"/>
	</g>
</g>
</svg>
