<?xml version="1.0" encoding="utf-8"?>
<!-- Generator: Adobe Illustrator 15.0.0, SVG Export Plug-In . SVG Version: 6.00 Build 0)  -->
<!DOCTYPE svg PUBLIC "-//W3C//DTD SVG 1.1//EN" "http://www.w3.org/Graphics/SVG/1.1/DTD/svg11.dtd">
<svg version="1.1" id="Layer_1" xmlns="http://www.w3.org/2000/svg" xmlns:xlink="http://www.w3.org/1999/xlink" x="0px" y="0px"
	 width="680.32px" height="680.32px" viewBox="0 0 680.32 680.32" enable-background="new 0 0 680.32 680.32" xml:space="preserve">
<path d="M568.33,97.369L346.978,46.35l-6.658-1.549l-6.657,1.549L111.91,97.37L0.001,123.135l102.137,29.863v58.076l53.266,16.645
	v-59.207l14.981,4.494v303.88l2.83,5.826c46.258,103.752,151.391,146.598,155.835,148.379l11.169,4.428l11.136-4.443
	c4.444-1.781,109.512-44.627,155.752-148.363l2.863-5.824V172.973l60.273-17.645l110.076-32.176L568.33,97.369z"/>
<path fill="#54B948" d="M403.889,312.397c-22.62-0.005-44.696-6.94-63.253-19.875c-18.446,12.943-40.436,19.884-62.97,19.875
	c-4.781,0.002-9.558-0.305-14.299-0.916c-22.643-4.159-44.138-13.098-63.054-26.218v45.144l0,0v140.105
	c41.613,93.83,139.922,132.748,139.922,132.748s96.445-38.918,139.724-132.748V348.133l0,0v-61.97
	c-18.665,12.529-39.682,21.138-61.772,25.301C413.445,312.08,408.67,312.391,403.889,312.397z"/>
<path fill="#54B948" d="M340.253,75.545L118.4,126.566l81.946,23.969v48.771c13.246-2.815,26.741-4.295,40.282-4.41
	c31.993,0,66.583,9.238,100.057,37.785c32.192-27.481,68.612-34.955,99.558-34.955c13.329,0.088,26.628,1.313,39.75,3.661v-50.853
	l81.861-23.969L340.253,75.545z"/>
<path fill="#FFFFFF" d="M340.169,318.621v257.657c0,0,69.912-35.188,116.519-103.203V325.179
	c-12.336,5.927-25.415,10.159-38.885,12.584C390.445,341.262,362.767,334.436,340.169,318.621z"/>
<path fill="#FFFFFF" d="M500.814,235.51l-38.284,25.935c-14.724,9.995-31.312,16.919-48.771,20.356
	c-3.284,0.418-6.592,0.629-9.903,0.633c-15.985-0.088-31.603-4.824-44.942-13.633l-7.342-5.992l8.605-7.356
	c21.873-18.677,47.973-27.748,79.783-27.748c11.552,0.053,23.076,1.129,34.438,3.212L500.814,235.51z"/>
<path fill="#FFFFFF" d="M329.583,262.292l-7.341,6.509c-13.203,8.768-28.68,13.487-44.527,13.582
	c-3.339,0.014-6.675-0.19-9.987-0.615c-17.839-3.483-34.756-10.649-49.67-21.04l-37.819-26.5l26.634-5.608
	c11.141-2.428,22.504-3.688,33.906-3.762c30.046,0,56.378,9.986,80.498,30.511L329.583,262.292z"/>
</svg>
