<?xml version="1.0" encoding="utf-8"?>
<!-- Generator: Adobe Illustrator 15.0.0, SVG Export Plug-In . SVG Version: 6.00 Build 0)  -->
<!DOCTYPE svg PUBLIC "-//W3C//DTD SVG 1.1//EN" "http://www.w3.org/Graphics/SVG/1.1/DTD/svg11.dtd">
<svg version="1.1" id="Layer_1" xmlns="http://www.w3.org/2000/svg" xmlns:xlink="http://www.w3.org/1999/xlink" x="0px" y="0px"
	 width="680.32px" height="680.32px" viewBox="0 0 680.32 680.32" style="enable-background:new 0 0 680.32 680.32;"
	 xml:space="preserve">
<g id="Laag_2">
	<g id="Layer_1_1_">
		<path d="M568.33,97.37L346.98,46.35l-6.66-1.55l-6.66,1.55L111.91,97.37L0,123.14L102.14,153v58.08l53.27,16.65v-59.21l14.98,4.49
			v303.88l2.83,5.83c46.26,103.75,151.39,146.6,155.84,148.38l11.17,4.43l11.14-4.44c4.44-1.78,109.51-44.63,155.75-148.36
			l2.86-5.83V172.97l60.27-17.64l110.08-32.18L568.33,97.37z"/>
		<path style="fill:#ED6B06;" d="M403.89,312.4c-22.62,0-44.7-6.94-63.25-19.88c-18.45,12.94-40.44,19.88-62.97,19.88
			c-4.78,0-9.56-0.3-14.3-0.92c-22.64-4.16-44.14-13.1-63.05-26.22v45.14l0,0v140.11c41.61,93.83,139.92,132.75,139.92,132.75
			s96.44-38.92,139.72-132.75V348.13l0,0v-61.97c-18.67,12.53-39.68,21.14-61.77,25.3C413.45,312.08,408.67,312.39,403.89,312.4z"/>
		<path style="fill:#ED6B06;" d="M340.25,75.55L118.4,126.56l81.95,23.97v48.77c13.25-2.82,26.74-4.29,40.28-4.41
			c31.99,0,66.58,9.24,100.06,37.79c32.19-27.48,68.61-34.96,99.56-34.96c13.33,0.09,26.63,1.31,39.75,3.66v-50.85l81.86-23.97
			L340.25,75.55z"/>
		<path style="fill:#FFFFFF;" d="M340.17,318.62v257.66c0,0,69.91-35.19,116.52-103.2v-147.9c-12.34,5.93-25.42,10.16-38.88,12.58
			C390.45,341.26,362.77,334.44,340.17,318.62z"/>
		<path style="fill:#FFFFFF;" d="M500.81,235.51l-38.28,25.93c-14.72,10-31.31,16.92-48.77,20.36c-3.28,0.42-6.59,0.63-9.9,0.63
			c-15.99-0.09-31.6-4.82-44.94-13.63l-7.34-5.99l8.61-7.36c21.87-18.68,47.97-27.75,79.78-27.75c11.55,0.05,23.08,1.13,34.44,3.21
			L500.81,235.51z"/>
		<path style="fill:#FFFFFF;" d="M329.58,262.29l-7.34,6.51c-13.2,8.77-28.68,13.49-44.53,13.58c-3.34,0.01-6.68-0.19-9.99-0.62
			c-17.84-3.48-34.76-10.65-49.67-21.04l-37.82-26.5l26.63-5.61c11.14-2.43,22.5-3.69,33.91-3.76c30.05,0,56.38,9.99,80.5,30.51
			L329.58,262.29z"/>
	</g>
</g>
</svg>
