<?xml version="1.0" encoding="utf-8"?>
<!-- Generator: Adobe Illustrator 15.0.0, SVG Export Plug-In . SVG Version: 6.00 Build 0)  -->
<!DOCTYPE svg PUBLIC "-//W3C//DTD SVG 1.1//EN" "http://www.w3.org/Graphics/SVG/1.1/DTD/svg11.dtd">
<svg version="1.1" id="Layer_1" xmlns="http://www.w3.org/2000/svg" xmlns:xlink="http://www.w3.org/1999/xlink" x="0px" y="0px"
	 width="170.08px" height="170.08px" viewBox="0 0 170.08 170.08" enable-background="new 0 0 170.08 170.08" xml:space="preserve">
<path d="M32.336,41.243h106.58c12.141,0,12.932,9.72,12.71,17.67c-0.479,17.41-0.13,34.84-0.159,52.261
	c-0.021,12.709-4.801,17.619-17.351,17.629c-32.721,0.041-65.45,0.041-98.169,0.013c-12.19-0.021-17.38-5.359-17.4-17.84
	c-0.04-17.189,0.23-34.37-0.11-51.563C18.157,45.493,22.606,41.243,32.336,41.243 M84.577,116.813c16.021,0,32.04-0.129,48.06,0.08
	c5.141,0.067,7.131-1.683,7.061-6.959c-0.229-16.73-0.051-33.46-0.1-50.184c-0.021-7.199-0.432-7.619-7.592-7.63
	c-31.568-0.03-63.139,0.102-94.699-0.12c-5.59-0.04-7.4,1.813-7.31,7.313c0.26,16.72,0.26,33.447,0,50.18
	c-0.08,5.439,1.58,7.54,7.23,7.431C52.997,116.623,68.787,116.813,84.577,116.813"/>
<path d="M71.637,73.093c1.21-13.696,5.8-19.366,14.569-19.18c8.601,0.18,12.859,6.7,13.96,19.471c8.521,1.013,7.88,6.209,8,12.899
	c0.11,6.55-0.199,12.52-0.021,18.38c0.16,5.24-1.93,8.011-7.369,7.99c-10.43-0.05-20.2-0.04-29.69,0
	c-5.38,0.021-7.46-2.643-7.48-7.92c-0.03-7.171-0.06-14.091-0.02-21.21C63.606,77.613,64.187,72.863,71.637,73.093 M94.646,73.323
	c0-2.98,0.201-4.62-0.039-6.189c-0.75-4.857-4.642-8.291-8.99-8.107c-4.439,0.18-7.78,3.8-8.34,8.777
	c-0.76,6.723-1.12,5.649,4.87,5.563C86.036,73.313,89.937,73.323,94.646,73.323 M82.827,101.703c4.229-4.43,8.179-8.37,11.87-12.55
	c0.85-0.97,0.83-2.72,1.21-4.11c-1.55,0.38-3.591,0.28-4.55,1.25c-2.771,2.79-5.11,6.03-7.62,9.08c-0.37-0.52-0.73-1.05-1.1-1.57
	c-2.22-0.606-4.45-1.22-6.67-1.84c1.11,2.19,2.1,4.45,3.37,6.554C79.907,99.443,80.997,100.063,82.827,101.703"/>
</svg>
