<?xml version="1.0" encoding="utf-8"?>
<!-- Generator: Adobe Illustrator 15.0.0, SVG Export Plug-In . SVG Version: 6.00 Build 0)  -->
<!DOCTYPE svg PUBLIC "-//W3C//DTD SVG 1.1//EN" "http://www.w3.org/Graphics/SVG/1.1/DTD/svg11.dtd">
<svg version="1.1" id="Layer_1" xmlns="http://www.w3.org/2000/svg" xmlns:xlink="http://www.w3.org/1999/xlink" x="0px" y="0px"
	 width="170.0791px" height="170.07813px" viewBox="0 0 170.0791 170.07813" enable-background="new 0 0 170.0791 170.07813"
	 xml:space="preserve">
<g>
	<path fill-rule="evenodd" clip-rule="evenodd" d="M84.74023,4.25195c0.19971,0,0.39893,0,0.59863,0
		c9.28857,8.66602,22.81689,20.81055,40.09424,22.1416c8.20654,0.63281,16.9292-1.14941,22.74023-4.18848
		c0.59912,4.58691,0.97412,9.39844,1.49609,14.0625c0,5.28613,0,10.57227,0,15.8584
		c-3.89209,55.35059-29.04736,89.44238-64.03174,113.70117c-0.39893,0-0.79736,0-1.19678,0
		C49.4668,141.55859,24.24609,107.53223,20.40967,52.12598c0-5.28613,0-10.57227,0-15.8584
		c0.70605-4.58008,0.59277-9.97949,1.79492-14.0625c6.18799,3.16797,12.17432,5.12598,20.94531,4.48828
		C61.53711,25.35449,74.56299,13.64355,84.74023,4.25195z M29.98438,34.77148
		c-2.26416,59.51563,21.5498,95.54102,55.35449,119.98438c33.00928-25.03809,57.17969-60.50879,54.75586-119.98438
		c-25.07813,4.34863-42.05469-7.53613-55.05518-17.95215C72.02637,27.31543,54.74219,39.22656,29.98438,34.77148z"/>
	<path fill-rule="evenodd" clip-rule="evenodd" d="M92.51953,87.43359c-2.56641,1.42285-3.96533,4.01367-6.2832,5.68457
		c-3.84082-0.74902-4.44141,1.74219-6.2832,2.99219c0.16406,2.15918,0.0376,4.02734-1.19727,4.78711
		c-1.44824,0.64648-4.05127,0.1377-5.98389,0.2998c-0.26855,2.12988,0.38232,3.69238,0,5.08594
		c-0.65283,2.37891-3.58984,3.35547-4.7876,5.08691c-3.2915,0-6.58252,0-9.87402,0c0.66309-3.17578-0.8833-6.35449,0-9.5752
		c0.52588-1.91602,4.25977-4.55859,5.98438-6.2832c6.04834-6.04785,12.39941-12.59082,17.95264-18.25195
		c-5.36377-14.46875,4.66797-29.31348,21.24414-27.52734c8.49658,0.91504,15.49756,8.39355,16.45703,16.15723
		C121.51465,80.18652,109.78174,93.21387,92.51953,87.43359z M103.59033,62.59863c-0.59082,4.45117,7.14551,4.54102,5.68555-0.59863
		c-0.37061-1.30371-1.92578-2.23242-3.88965-1.49609C103.73682,61.12207,103.66309,62.05273,103.59033,62.59863z"/>
</g>
</svg>
