<?xml version="1.0" encoding="utf-8"?>
<!-- Generator: Adobe Illustrator 15.0.0, SVG Export Plug-In . SVG Version: 6.00 Build 0)  -->
<!DOCTYPE svg PUBLIC "-//W3C//DTD SVG 1.1//EN" "http://www.w3.org/Graphics/SVG/1.1/DTD/svg11.dtd">
<svg version="1.1" id="Layer_1" xmlns="http://www.w3.org/2000/svg" xmlns:xlink="http://www.w3.org/1999/xlink" x="0px" y="0px"
	 width="170.079px" height="170.078px" viewBox="0 0 170.079 170.078" enable-background="new 0 0 170.079 170.078"
	 xml:space="preserve">
<path d="M138.885,62.014H79.381v-9.129c0-19.538-15.895-35.434-35.433-35.434S8.515,33.347,8.515,52.885v10.733h14.173V52.885
	c0-11.723,9.538-21.26,21.26-21.26s21.26,9.537,21.26,21.26v9.129h-2.813c-8.575,0-15.591,7.016-15.591,15.591v63.685
	c0,8.575,7.016,15.591,15.591,15.591h76.49c8.575,0,15.591-7.016,15.591-15.591V77.604C154.476,69.029,147.46,62.014,138.885,62.014
	z"/>
<path fill-rule="evenodd" clip-rule="evenodd" fill="#ED6B06" d="M138.885,67.683c5.471,0,9.921,4.451,9.921,9.922v63.685
	c0,5.471-4.451,9.922-9.921,9.922h-76.49c-5.471,0-9.921-4.451-9.921-9.922V77.604c0-5.471,4.451-9.922,9.921-9.922H138.885"/>
<path fill="#FFFFFF" d="M118.039,81.67v10.962c-3.018-1.717-6.312-2.574-9.883-2.574c-4.401,0-7.952,1.682-10.65,5.045
	c-2.699,3.363-4.104,7.868-4.215,13.516h0.249c2.851-4.208,7.018-6.312,12.499-6.312c4.983,0,8.934,1.688,11.855,5.065
	c2.92,3.378,4.381,7.848,4.381,13.412c0,5.979-1.938,10.948-5.813,14.907c-3.876,3.959-8.803,5.938-14.782,5.938
	c-6.699,0-11.931-2.422-15.696-7.267c-3.765-4.844-5.647-11.64-5.647-20.388c0-10.298,2.422-18.526,7.267-24.686
	c4.844-6.159,11.419-9.239,19.724-9.239C111.92,80.05,115.491,80.59,118.039,81.67z M101.595,112.022
	c-2.408,0-4.326,0.845-5.751,2.533c-1.426,1.689-2.138,3.849-2.138,6.478c0,2.907,0.727,5.392,2.18,7.454
	c1.454,2.063,3.384,3.093,5.792,3.093c2.353,0,4.235-0.92,5.647-2.761c1.412-1.841,2.118-4.242,2.118-7.204
	C109.443,115.22,106.827,112.022,101.595,112.022z"/>
</svg>
