<?xml version="1.0" encoding="utf-8"?>
<!-- Generator: Adobe Illustrator 15.0.0, SVG Export Plug-In . SVG Version: 6.00 Build 0)  -->
<!DOCTYPE svg PUBLIC "-//W3C//DTD SVG 1.1//EN" "http://www.w3.org/Graphics/SVG/1.1/DTD/svg11.dtd">
<svg version="1.1" id="Layer_1" xmlns="http://www.w3.org/2000/svg" xmlns:xlink="http://www.w3.org/1999/xlink" x="0px" y="0px"
	 width="170.079px" height="170.078px" viewBox="0 0 170.079 170.078" enable-background="new 0 0 170.079 170.078"
	 xml:space="preserve">
<path d="M138.885,62.014H79.381v-9.129c0-19.538-15.895-35.434-35.433-35.434S8.515,33.347,8.515,52.885v10.733h14.173V52.885
	c0-11.723,9.538-21.26,21.26-21.26s21.26,9.537,21.26,21.26v9.129h-2.813c-8.575,0-15.591,7.016-15.591,15.591v63.685
	c0,8.575,7.016,15.591,15.591,15.591h76.49c8.575,0,15.591-7.016,15.591-15.591V77.604C154.476,69.029,147.46,62.014,138.885,62.014
	z"/>
<path fill-rule="evenodd" clip-rule="evenodd" fill="#ED6B06" d="M138.885,67.683c5.471,0,9.921,4.451,9.921,9.922v63.685
	c0,5.471-4.451,9.922-9.921,9.922h-76.49c-5.471,0-9.921-4.451-9.921-9.922V77.604c0-5.471,4.451-9.922,9.921-9.922H138.885"/>
<path fill="#FFFFFF" d="M122.855,127.926h-7.142v12.665h-11.958v-12.665H77.803v-8.346l24.997-38.533h12.914v37.537h7.142V127.926z
	 M103.92,94.168h-0.249c-0.388,0.996-1.135,2.547-2.242,4.65l-12.748,19.766h15.073V99.856
	C103.754,98.195,103.81,96.3,103.92,94.168z"/>
</svg>
