<?xml version="1.0" encoding="utf-8"?>
<!-- Generator: Adobe Illustrator 15.0.0, SVG Export Plug-In . SVG Version: 6.00 Build 0)  -->
<!DOCTYPE svg PUBLIC "-//W3C//DTD SVG 1.1//EN" "http://www.w3.org/Graphics/SVG/1.1/DTD/svg11.dtd">
<svg version="1.1" id="Layer_1" xmlns="http://www.w3.org/2000/svg" xmlns:xlink="http://www.w3.org/1999/xlink" x="0px" y="0px"
	 width="170.079px" height="170.078px" viewBox="0 0 170.079 170.078" enable-background="new 0 0 170.079 170.078"
	 xml:space="preserve">
<path d="M138.885,62.014H79.381v-9.129c0-19.538-15.895-35.434-35.433-35.434S8.515,33.347,8.515,52.885v10.733h14.173V52.885
	c0-11.723,9.538-21.26,21.26-21.26s21.26,9.537,21.26,21.26v9.129h-2.813c-8.575,0-15.591,7.016-15.591,15.591v63.685
	c0,8.575,7.016,15.591,15.591,15.591h76.49c8.575,0,15.591-7.016,15.591-15.591V77.604C154.476,69.029,147.46,62.014,138.885,62.014
	z"/>
<path fill-rule="evenodd" clip-rule="evenodd" fill="#ED6B06" d="M138.885,67.683c5.471,0,9.921,4.451,9.921,9.922v63.685
	c0,5.471-4.451,9.922-9.921,9.922h-76.49c-5.471,0-9.921-4.451-9.921-9.922V77.604c0-5.471,4.451-9.922,9.921-9.922H138.885"/>
<path fill="#FFFFFF" d="M95.741,129.463v0.249h24.166v10.879H80.709v-10.215l17.066-16.318c3.433-3.294,5.848-6.056,7.246-8.284
	c1.397-2.228,2.097-4.574,2.097-7.038c0-5.48-2.948-8.222-8.844-8.222c-5.122,0-10.021,2.035-14.699,6.104V85.074
	c5.176-3.349,11.017-5.024,17.523-5.024c6.089,0,10.844,1.53,14.263,4.589c3.418,3.059,5.128,7.19,5.128,12.395
	c0,6.948-4.167,14.132-12.499,21.551L95.741,129.463z"/>
</svg>
