<?xml version="1.0" encoding="utf-8"?>
<!-- Generator: Adobe Illustrator 15.0.0, SVG Export Plug-In . SVG Version: 6.00 Build 0)  -->
<!DOCTYPE svg PUBLIC "-//W3C//DTD SVG 1.1//EN" "http://www.w3.org/Graphics/SVG/1.1/DTD/svg11.dtd">
<svg version="1.1" id="Layer_1" xmlns="http://www.w3.org/2000/svg" xmlns:xlink="http://www.w3.org/1999/xlink" x="0px" y="0px"
	 width="170.079px" height="170.078px" viewBox="0 0 170.079 170.078" enable-background="new 0 0 170.079 170.078"
	 xml:space="preserve">
<path d="M138.885,62.014H79.381v-9.129c0-19.538-15.895-35.434-35.433-35.434S8.515,33.347,8.515,52.885v10.733h14.173V52.885
	c0-11.723,9.538-21.26,21.26-21.26s21.26,9.537,21.26,21.26v9.129h-2.813c-8.575,0-15.591,7.016-15.591,15.591v63.685
	c0,8.575,7.016,15.591,15.591,15.591h76.49c8.575,0,15.591-7.016,15.591-15.591V77.604C154.476,69.029,147.46,62.014,138.885,62.014
	z"/>
<path fill-rule="evenodd" clip-rule="evenodd" fill="#FFE14F" d="M138.885,67.683c5.471,0,9.921,4.451,9.921,9.922v63.685
	c0,5.471-4.451,9.922-9.921,9.922h-76.49c-5.471,0-9.921-4.451-9.921-9.922V77.604c0-5.471,4.451-9.922,9.921-9.922H138.885"/>
<path d="M84.529,139.138v-7.226c4.069,2.631,8.208,3.945,12.416,3.945c4.208,0,7.599-1.19,10.173-3.571
	c2.574-2.381,3.862-5.536,3.862-9.467c0-3.903-1.315-6.948-3.945-9.136c-2.63-2.187-6.395-3.28-11.294-3.28
	c-1.661,0-4.775,0.166-9.343,0.498V81.047h28.817v6.146H92.833v17.439c1.827-0.11,3.515-0.166,5.066-0.166
	c6.367,0,11.294,1.599,14.782,4.796s5.232,7.578,5.232,13.142c0,5.759-1.875,10.396-5.626,13.91
	c-3.751,3.517-8.893,5.273-15.426,5.273C91.353,141.587,87.242,140.771,84.529,139.138z"/>
</svg>
