<?xml version="1.0" encoding="utf-8"?>
<!-- Generator: Adobe Illustrator 15.0.0, SVG Export Plug-In . SVG Version: 6.00 Build 0)  -->
<!DOCTYPE svg PUBLIC "-//W3C//DTD SVG 1.1//EN" "http://www.w3.org/Graphics/SVG/1.1/DTD/svg11.dtd">
<svg version="1.1" id="Layer_1" xmlns="http://www.w3.org/2000/svg" xmlns:xlink="http://www.w3.org/1999/xlink" x="0px" y="0px"
	 width="170.079px" height="170.078px" viewBox="0 0 170.079 170.078" enable-background="new 0 0 170.079 170.078"
	 xml:space="preserve">
<path d="M138.885,62.014H79.381v-9.129c0-19.538-15.895-35.434-35.433-35.434S8.515,33.347,8.515,52.885v10.733h14.173V52.885
	c0-11.723,9.538-21.26,21.26-21.26s21.26,9.537,21.26,21.26v9.129h-2.813c-8.575,0-15.591,7.016-15.591,15.591v63.685
	c0,8.575,7.016,15.591,15.591,15.591h76.49c8.575,0,15.591-7.016,15.591-15.591V77.604C154.476,69.029,147.46,62.014,138.885,62.014
	z"/>
<path fill-rule="evenodd" clip-rule="evenodd" fill="#ED6B06" d="M138.885,67.683c5.471,0,9.921,4.451,9.921,9.922v63.685
	c0,5.471-4.451,9.922-9.921,9.922h-76.49c-5.471,0-9.921-4.451-9.921-9.922V77.604c0-5.471,4.451-9.922,9.921-9.922H138.885"/>
<path fill="#FFFFFF" d="M82.993,139.055v-11.212c4.069,2.492,8.401,3.737,12.997,3.737c3.46,0,6.166-0.823,8.118-2.471
	c1.952-1.646,2.927-3.882,2.927-6.706c0-5.896-4.167-8.844-12.499-8.844c-2.713,0-5.993,0.249-9.841,0.747v-33.26h32.969V91.76
	H95.907v11.917c1.744-0.166,3.391-0.249,4.941-0.249c6.118,0,10.907,1.605,14.367,4.816c3.46,3.212,5.19,7.53,5.19,12.955
	c0,6.008-2.063,10.914-6.187,14.721c-4.125,3.806-9.716,5.709-16.775,5.709C91.713,141.629,86.896,140.771,82.993,139.055z"/>
</svg>
