<?xml version="1.0" encoding="utf-8"?>
<!-- Generator: Adobe Illustrator 15.0.0, SVG Export Plug-In . SVG Version: 6.00 Build 0)  -->
<!DOCTYPE svg PUBLIC "-//W3C//DTD SVG 1.1//EN" "http://www.w3.org/Graphics/SVG/1.1/DTD/svg11.dtd">
<svg version="1.1" id="Layer_1" xmlns="http://www.w3.org/2000/svg" xmlns:xlink="http://www.w3.org/1999/xlink" x="0px" y="0px"
	 width="170.08px" height="170.08px" viewBox="0 0 170.08 170.08" style="enable-background:new 0 0 170.08 170.08;"
	 xml:space="preserve">
<path d="M123.28,62.01h-2.81v-9.13c0-19.54-15.9-35.43-35.43-35.43s-35.43,15.9-35.43,35.43v9.13h-2.81
	c-8.58,0-15.59,7.02-15.59,15.59v63.68c0,8.58,7.02,15.59,15.59,15.59h76.49c8.58,0,15.59-7.02,15.59-15.59V77.6
	C138.87,69.03,131.86,62.01,123.28,62.01z M63.78,52.88c0-11.72,9.54-21.26,21.26-21.26s21.26,9.54,21.26,21.26v9.13H63.78V52.88z"
	/>
<path style="fill-rule:evenodd;clip-rule:evenodd;fill:#54B948;" d="M123.28,67.68c5.47,0,9.92,4.45,9.92,9.92v63.68
	c0,5.47-4.45,9.92-9.92,9.92H46.79c-5.47,0-9.92-4.45-9.92-9.92V77.6c0-5.47,4.45-9.92,9.92-9.92H123.28"/>
<path style="fill-rule:evenodd;clip-rule:evenodd;fill:#FFFFFF;" d="M74.1,138.48c14.87-15.43,28.76-29.17,41.73-43.73
	c3-3.38,2.92-9.48,4.25-14.33c-5.45,1.34-12.63,0.96-16,4.34c-9.75,9.73-17.96,21-26.79,31.64c-1.29-1.82-2.58-3.65-3.86-5.48
	c-7.81-2.13-15.64-4.26-23.46-6.4c3.89,7.64,7.39,15.51,11.84,22.82C63.82,130.62,67.68,132.79,74.1,138.48"/>
</svg>
