<?xml version="1.0" encoding="utf-8"?>
<!-- Generator: Adobe Illustrator 15.0.0, SVG Export Plug-In . SVG Version: 6.00 Build 0)  -->
<!DOCTYPE svg PUBLIC "-//W3C//DTD SVG 1.1//EN" "http://www.w3.org/Graphics/SVG/1.1/DTD/svg11.dtd">
<svg version="1.1" id="Layer_1" xmlns="http://www.w3.org/2000/svg" xmlns:xlink="http://www.w3.org/1999/xlink" x="0px" y="0px"
	 width="170.079px" height="170.078px" viewBox="0 0 170.079 170.078" enable-background="new 0 0 170.079 170.078"
	 xml:space="preserve">
<path d="M138.885,62.014H79.381v-9.129c0-19.538-15.895-35.434-35.433-35.434S8.515,33.347,8.515,52.885v10.733h14.173V52.885
	c0-11.723,9.538-21.26,21.26-21.26s21.26,9.537,21.26,21.26v9.129h-2.813c-8.575,0-15.591,7.016-15.591,15.591v63.685
	c0,8.575,7.016,15.591,15.591,15.591h76.49c8.575,0,15.591-7.016,15.591-15.591V77.604C154.476,69.029,147.46,62.014,138.885,62.014
	z"/>
<path fill-rule="evenodd" clip-rule="evenodd" fill="#ED6B06" d="M138.885,67.683c5.471,0,9.921,4.451,9.921,9.922v63.685
	c0,5.471-4.451,9.922-9.921,9.922h-76.49c-5.471,0-9.921-4.451-9.921-9.922V77.604c0-5.471,4.451-9.922,9.921-9.922H138.885"/>
<path fill="#FFFFFF" d="M82.287,138.64v-11.419c3.986,2.906,8.637,4.359,13.952,4.359c3.349,0,5.958-0.72,7.827-2.159
	c1.869-1.438,2.803-3.446,2.803-6.021c0-2.657-1.156-4.706-3.467-6.146c-2.312-1.439-5.488-2.159-9.529-2.159h-5.356v-10.049h4.941
	c7.751,0,11.626-2.574,11.626-7.724c0-4.844-2.976-7.266-8.927-7.266c-3.986,0-7.862,1.287-11.626,3.861V83.206
	c4.18-2.104,9.052-3.156,14.616-3.156c6.089,0,10.83,1.37,14.222,4.111c3.391,2.74,5.086,6.298,5.086,10.671
	c0,7.779-3.945,12.651-11.834,14.616v0.208c4.208,0.526,7.529,2.056,9.965,4.588c2.436,2.533,3.654,5.641,3.654,9.322
	c0,5.564-2.035,9.966-6.104,13.204c-4.069,3.239-9.689,4.858-16.858,4.858C91.131,141.629,86.134,140.633,82.287,138.64z"/>
</svg>
