<?xml version="1.0" encoding="utf-8"?>
<!-- Generator: Adobe Illustrator 15.0.0, SVG Export Plug-In . SVG Version: 6.00 Build 0)  -->
<!DOCTYPE svg PUBLIC "-//W3C//DTD SVG 1.1//EN" "http://www.w3.org/Graphics/SVG/1.1/DTD/svg11.dtd">
<svg version="1.1" id="Layer_1" xmlns="http://www.w3.org/2000/svg" xmlns:xlink="http://www.w3.org/1999/xlink" x="0px" y="0px"
	 width="170.079px" height="170.078px" viewBox="0 0 170.079 170.078" enable-background="new 0 0 170.079 170.078"
	 xml:space="preserve">
<path d="M138.885,62.014H79.381v-9.129c0-19.538-15.895-35.434-35.433-35.434S8.515,33.347,8.515,52.885v10.733h14.173V52.885
	c0-11.723,9.538-21.26,21.26-21.26s21.26,9.537,21.26,21.26v9.129h-2.813c-8.575,0-15.591,7.016-15.591,15.591v63.685
	c0,8.575,7.016,15.591,15.591,15.591h76.49c8.575,0,15.591-7.016,15.591-15.591V77.604C154.476,69.029,147.46,62.014,138.885,62.014
	z"/>
<path fill-rule="evenodd" clip-rule="evenodd" fill="#E31B23" d="M138.885,67.683c5.471,0,9.921,4.451,9.921,9.922v63.685
	c0,5.471-4.451,9.922-9.921,9.922h-76.49c-5.471,0-9.921-4.451-9.921-9.922V77.604c0-5.471,4.451-9.922,9.921-9.922H138.885"/>
<polygon fill="#FFFFFF" points="129.559,90.55 119.536,80.528 100.64,99.424 81.744,80.528 71.722,90.55 90.618,109.446 
	71.722,128.343 81.744,138.364 100.64,119.469 119.536,138.364 129.559,128.343 110.662,109.446 "/>
</svg>
