<?xml version="1.0" encoding="utf-8"?>
<!-- Generator: Adobe Illustrator 15.0.0, SVG Export Plug-In . SVG Version: 6.00 Build 0)  -->
<!DOCTYPE svg PUBLIC "-//W3C//DTD SVG 1.1//EN" "http://www.w3.org/Graphics/SVG/1.1/DTD/svg11.dtd">
<svg version="1.1" id="Layer_1" xmlns="http://www.w3.org/2000/svg" xmlns:xlink="http://www.w3.org/1999/xlink" x="0px" y="0px"
	 width="170.079px" height="170.078px" viewBox="0 0 170.079 170.078" enable-background="new 0 0 170.079 170.078"
	 xml:space="preserve">
<path d="M138.885,62.014H79.381v-9.129c0-19.538-15.895-35.434-35.433-35.434S8.515,33.347,8.515,52.885v10.733h14.173V52.885
	c0-11.723,9.538-21.26,21.26-21.26s21.26,9.537,21.26,21.26v9.129h-2.813c-8.575,0-15.591,7.016-15.591,15.591v63.685
	c0,8.575,7.016,15.591,15.591,15.591h76.49c8.575,0,15.591-7.016,15.591-15.591V77.604C154.476,69.029,147.46,62.014,138.885,62.014
	z"/>
<path fill-rule="evenodd" clip-rule="evenodd" fill="#FFE14F" d="M138.885,67.683c5.471,0,9.921,4.451,9.921,9.922v63.685
	c0,5.471-4.451,9.922-9.921,9.922h-76.49c-5.471,0-9.921-4.451-9.921-9.922V77.604c0-5.471,4.451-9.922,9.921-9.922H138.885"/>
<path d="M116.502,81.753v6.436c-3.073-1.578-6.312-2.366-9.716-2.366c-5.288,0-9.516,2.353-12.686,7.059
	c-3.17,4.706-4.754,11.004-4.754,18.893h0.166c2.768-5.619,7.308-8.429,13.62-8.429c5.204,0,9.343,1.668,12.416,5.003
	c3.073,3.337,4.609,7.801,4.609,13.392c0,5.841-1.758,10.609-5.273,14.305c-3.516,3.695-7.987,5.543-13.412,5.543
	c-5.979,0-10.672-2.38-14.077-7.142c-3.405-4.761-5.107-11.446-5.107-20.056c0-10.436,2.228-18.769,6.686-24.997
	c4.457-6.229,10.339-9.343,17.647-9.343C110.771,80.05,114.065,80.618,116.502,81.753z M101.637,109.116
	c-3.516,0-6.368,1.19-8.554,3.571c-2.188,2.381-3.281,5.19-3.281,8.429c0,4.069,1.086,7.544,3.26,10.423
	c2.173,2.879,5.059,4.318,8.658,4.318c3.432,0,6.201-1.252,8.305-3.758c2.103-2.505,3.156-5.682,3.156-9.53
	c0-4.207-1.011-7.501-3.031-9.882C108.128,110.307,105.291,109.116,101.637,109.116z"/>
</svg>
