<?xml version="1.0" encoding="utf-8"?>
<!-- Generator: Adobe Illustrator 15.0.0, SVG Export Plug-In . SVG Version: 6.00 Build 0)  -->
<!DOCTYPE svg PUBLIC "-//W3C//DTD SVG 1.1//EN" "http://www.w3.org/Graphics/SVG/1.1/DTD/svg11.dtd">
<svg version="1.1" id="Layer_1" xmlns="http://www.w3.org/2000/svg" xmlns:xlink="http://www.w3.org/1999/xlink" x="0px" y="0px"
	 width="170.0791px" height="170.07813px" viewBox="0 0 170.0791 170.07813" enable-background="new 0 0 170.0791 170.07813"
	 xml:space="preserve">
<path fill-rule="evenodd" clip-rule="evenodd" d="M84.74072,4.25195c0.19922,0,0.39844,0,0.59766,0
	c4.85254,4.72852,10.92676,10.11816,17.35498,14.06445c11.19971,6.87305,30.92285,12.11426,45.47998,3.88867
	c0.59863,4.58691,0.97412,9.39844,1.49609,14.0625c0,5.28613,0,10.57129,0,15.8584
	c-3.89209,55.35059-29.04688,89.44336-64.03125,113.70117c-0.39941,0-0.79785,0-1.19727,0
	c-34.98486-24.25684-60.14063-58.34961-64.03125-113.70117c0-5.28711,0-10.57227,0-15.8584
	c0.69824-4.58789,0.57275-9.99902,1.79492-14.0625c4.8916,2.09473,8.5127,3.79199,14.06348,4.18848
	c13.48779,0.96582,22.56641-3.18945,30.81885-8.07715C73.75928,14.36426,79.84863,9.13281,84.74072,4.25195z M85.03955,85.63672
	c0,22.8418,0,45.68066,0,68.52051c0.77686,0.25,1.60156-0.54688,2.09473-0.89746c0.70459-0.50195,1.43604-0.99414,2.09424-1.49707
	c21.20166-16.2002,37.0459-38.23242,45.48047-66.72266c-16.55762,0-33.11279,0-49.66943,0c0-22.63965,0-45.28125,0-67.92285
	c-12.12354,8.88574-26.77344,20.05273-49.66943,18.55273c-1.90332-0.125-3.29736-0.46387-5.38574-0.89844
	c-1.22754,18.59082,1.15186,36.14551,5.38574,50.26855c16.45703,0,32.91357,0,49.37061,0
	C84.97314,85.10645,85.08789,85.29004,85.03955,85.63672z"/>
</svg>
