<?xml version="1.0" encoding="utf-8"?>
<!-- Generator: Adobe Illustrator 15.0.0, SVG Export Plug-In . SVG Version: 6.00 Build 0)  -->
<!DOCTYPE svg PUBLIC "-//W3C//DTD SVG 1.1//EN" "http://www.w3.org/Graphics/SVG/1.1/DTD/svg11.dtd">
<svg version="1.1" id="Layer_1" xmlns="http://www.w3.org/2000/svg" xmlns:xlink="http://www.w3.org/1999/xlink" x="0px" y="0px"
	 width="170.08px" height="170.08px" viewBox="0 0 170.08 170.08" style="enable-background:new 0 0 170.08 170.08;"
	 xml:space="preserve">
<path d="M83.7,134.41c-3.01,0-6.01-0.46-8.9-1.35c-3.1-0.8-6.03-2.18-8.96-4.22c-0.5,0.26-1,0.5-1.49,0.72
	c-0.27,0.13-0.54,0.25-0.81,0.38c-5.57,2.74-11.73,4.13-18.3,4.13c0,0,0,0,0,0c-0.48,0-0.96-0.01-1.44-0.02
	c-1.44-0.04-2.83-0.21-4.18-0.37c-0.58-0.07-1.15-0.14-1.73-0.2l-0.34-0.06l-5.19-1.19l-4.89-1.79L21.16,127l-4.69-3.61l-5.6-6.17
	l-3.68-6.41c-1.55-3.29-2.49-6.7-2.79-10.12c-0.04-0.58-0.08-1.1-0.13-1.61c-0.12-1.26-0.23-2.56-0.17-3.93
	c0.23-5.24,1.56-10.19,3.94-14.7c1.68-3.17,3.39-5.63,5.4-7.7c2.6-2.95,5.55-5.41,8.76-7.32l0.23-0.12l7.8-3.73l7.75-1.95l6.3-0.56
	l1.79,0.08c1.05,0.04,2.13,0.09,3.21,0.15c0.3-0.72,0.62-1.43,0.93-2.12c0.19-0.42,0.37-0.84,0.56-1.26
	c1.29-2.71,2.96-5.19,4.99-7.43c2.5-2.95,5.38-5.4,8.51-7.23c3.91-2.56,8.29-4.22,13.36-5.07c6.25-1.05,12.52-0.49,18.59,1.64
	c0.45,0.16,0.88,0.35,1.32,0.54l0.48,0.21c3.19,1.21,6.24,3.01,8.99,5.32c3.48,2.74,6.37,6.04,8.53,9.75l0.08,0.15l0.71,1.39
	c0.5,0.97,1.01,1.98,1.5,3c3.52-0.1,6.96,0.37,10.12,1.4c3.98,1.14,7.67,3.17,10.95,6.03c4.11,3.58,6.96,7.95,8.47,13.01
	c0.64,0.21,1.29,0.4,1.96,0.6l1.11,0.33c3.21,1.06,5.99,2.87,8.57,5.54c2.58,2.46,4.52,5.57,5.76,9.23
	c1.46,4.31,1.66,8.84,0.6,13.48c-0.1,0.42-0.23,0.78-0.34,1.06l-0.07,0.18c-0.73,2.65-1.9,5.04-3.49,7.09
	c-1.62,2.36-3.56,4.26-5.77,5.67c-2.32,1.66-4.42,2.71-6.61,3.29l-0.15,0.03l-4.53,0.94c-2.84,0.38-5.67,0.18-8.38-0.59l-2.63-0.84
	c-0.35-0.05-0.67-0.14-0.96-0.29c-0.09,0.06-0.18,0.12-0.25,0.18l-0.12,0.09c-9.17,6.47-19.38,7.84-30.05,4.03
	c-2.84,2-5.84,3.47-8.92,4.37C89.91,133.94,86.76,134.41,83.7,134.41z M65.94,122.86c1.32,0,2.26,0.69,2.56,0.92
	c2.58,1.88,5.12,3.13,7.76,3.8l0.15,0.04c4.78,1.5,9.82,1.48,15.07-0.05c2.73-0.8,5.4-2.16,7.94-4.06c0.83-0.63,1.73-0.69,2.16-0.71
	l1.17-0.2l0.89,0.62c8.98,3.29,17.38,2.23,25.13-3.24l0.12-0.08c0.84-0.59,1.99-1.41,3.55-1.41c0.8,0,1.58,0.21,2.31,0.64l2.89,0.92
	c1.8,0.51,3.85,0.67,5.89,0.41l4.14-0.86c1.5-0.41,3.01-1.19,4.75-2.44l0.14-0.1c1.63-1.03,3.01-2.4,4.24-4.2l0.11-0.15
	c1.19-1.52,2.03-3.24,2.57-5.27l0.06-0.19c0.05-0.14,0.1-0.27,0.15-0.41c0.04-0.11,0.09-0.21,0.11-0.32
	c0.84-3.65,0.69-7.05-0.44-10.4c-0.96-2.85-2.38-5.13-4.34-6.99l-0.1-0.1c-1.93-2.02-3.97-3.36-6.23-4.11l-1.01-0.3
	c-1-0.29-2.03-0.6-3.06-0.96c-1.19-0.42-2.21-1.53-2.54-2.77c-1.17-4.36-3.44-7.97-6.96-11.03c-2.67-2.32-5.64-3.96-8.83-4.87
	l-0.1-0.03c-2.82-0.92-5.94-1.28-9.15-1.1c-1.87,0.1-3.22-0.73-4.03-2.5c-0.55-1.2-1.15-2.38-1.79-3.62l-0.68-1.34
	c-1.8-3.07-4.21-5.81-7.17-8.14c-2.33-1.95-4.83-3.43-7.51-4.45l-0.65-0.28c-0.31-0.13-0.62-0.27-0.93-0.38
	c-5.17-1.82-10.46-2.29-15.77-1.4c-4.31,0.72-7.99,2.12-11.25,4.26l-0.13,0.08c-2.63,1.53-4.98,3.53-7.16,6.1
	c-1.72,1.91-3.08,3.92-4.1,6.05c-0.15,0.35-0.34,0.78-0.53,1.21c-0.47,1.05-0.91,2.03-1.3,3.04c-0.63,1.63-1.92,2.53-3.62,2.53
	c-0.13,0-0.28-0.01-0.43-0.02c-1.39-0.1-2.82-0.16-4.21-0.22l-1.42-0.06l-5.7,0.5l-6.53,1.68l-7.18,3.43
	c-2.68,1.61-5.14,3.69-7.34,6.18l-0.09,0.1c-1.64,1.69-3.07,3.74-4.5,6.46c-1.99,3.76-3.09,7.9-3.29,12.3
	C9.7,96.39,9.8,97.45,9.9,98.57c0.05,0.57,0.1,1.13,0.14,1.7c0.24,2.69,0.97,5.34,2.22,8.03l3.21,5.57l5.01,5.52l3.92,2.97l5.58,3
	l4.14,1.49l4.52,1.02c0.55,0.06,1.11,0.13,1.66,0.19c1.28,0.15,2.49,0.3,3.67,0.33c6.15,0.18,11.93-1,17.07-3.53
	c0.31-0.15,0.62-0.29,0.93-0.44c0.63-0.29,1.22-0.57,1.72-0.87C64.44,123.08,65.18,122.86,65.94,122.86z"/>
<path style="fill-rule:evenodd;clip-rule:evenodd;" d="M87.64,75.36c-0.44-0.37-0.88-0.73-1.34-1.07c-0.4-0.29-0.69-0.26-1.07,0.13
	c-0.65,0.68-1.31,1.27-1.99,1.79l1.02-0.14C85.4,75.93,86.52,75.68,87.64,75.36z M84.19,107.85c-3.77-6.59-5.77-14.06-5.95-22.21
	c-0.01-0.38-0.03-0.76-0.06-1.19l-0.05-1l-0.23-4.79c-0.19,0.03-0.39,0.08-0.58,0.1c-3.88,0.46-7.49-1.05-10.83-4.49
	c-0.17-0.17-0.48-0.21-0.66-0.07c-2.97,2.04-5.6,4.98-7.9,8.77c-4.19,6.92-6.78,15.38-8,25.07c-0.3,2.37-0.47,4.79-0.68,7.12
	c0.14,0.14,0.16,0.18,0.2,0.19c4.17,1.83,8.41,3.11,12.69,3.79c3.62,0.58,7.25,0.82,10.88,1.21c0.17,0.02,0.35,0.09,0.52,0.14h4.88
	c0.26-0.05,0.52-0.14,0.78-0.16c2.89-0.28,5.78-0.43,8.67-0.85c1.67-0.24,3.33-0.57,4.99-0.96C89.47,115.56,86.56,112,84.19,107.85z
	"/>
<path style="fill-rule:evenodd;clip-rule:evenodd;" d="M76.7,50.18c0.71,0.14,1.44,0.24,2.15,0.42c4.82,1.19,8.47,5.66,8.96,10.79
	c0.59,6.05-3.13,11.71-8.83,13.28c-6.76,1.86-13.69-2.75-14.82-9.92C63.1,58,67.28,51.72,73.71,50.43c0.48-0.1,0.97-0.16,1.45-0.24
	H76.7z"/>
<path d="M104.92,120.87c-0.65,0-1.27-0.14-1.79-0.41c-6.38-3.25-11.51-8.2-15.24-14.71c-3.41-5.97-5.23-12.76-5.39-20.2
	c-0.01-0.43-0.04-0.86-0.06-1.34l-0.18-3.57l2.58-0.34c4.74-0.63,9-2.56,13.51-4.6c1.36-0.62,2.73-1.23,4.1-1.81l0.53-0.22h3.94
	l0.53,0.22c1.35,0.57,2.68,1.18,4.02,1.78c4.3,1.95,8.37,3.78,12.84,4.55c0.25,0.04,0.48,0.1,0.78,0.18l2.67,0.67l-0.19,2.39
	c-0.05,0.71-0.1,1.41-0.14,2.12c-0.1,1.63-0.21,3.31-0.44,5.01c-1.22,8.75-4.84,16.34-10.76,22.57c-3.06,3.21-6.14,5.59-9.43,7.28
	C106.1,120.79,105.39,120.87,104.92,120.87z M88.16,85.46c0.15,6.56,1.67,12.27,4.65,17.47c3.06,5.35,7.03,9.3,12.12,12.07
	c2.45-1.37,4.81-3.26,7.19-5.76c5.09-5.35,8.2-11.89,9.25-19.44c0.19-1.4,0.29-2.82,0.38-4.31c-4.54-1.01-8.64-2.86-12.62-4.66
	c-1.12-0.51-2.24-1.01-3.37-1.5h-1.63c-1.16,0.5-2.3,1.01-3.45,1.53C96.73,82.65,92.67,84.48,88.16,85.46z"/>
</svg>
