<?xml version="1.0" encoding="utf-8"?>
<!-- Generator: Adobe Illustrator 15.0.0, SVG Export Plug-In . SVG Version: 6.00 Build 0)  -->
<!DOCTYPE svg PUBLIC "-//W3C//DTD SVG 1.1//EN" "http://www.w3.org/Graphics/SVG/1.1/DTD/svg11.dtd">
<svg version="1.1" id="Layer_1" xmlns="http://www.w3.org/2000/svg" xmlns:xlink="http://www.w3.org/1999/xlink" x="0px" y="0px"
	 width="170.0791px" height="170.07813px" viewBox="0 0 170.0791 170.07813" enable-background="new 0 0 170.0791 170.07813"
	 xml:space="preserve">
<g>
	<path fill-rule="evenodd" clip-rule="evenodd" d="M64.40479,7.08594c1.01953,0,2.03809,0,3.05664,0
		c5.95068,4.48242,8.98291,11.87891,13.75635,17.53418c2.44141-0.33301,4.88574-0.57324,7.26074,0
		c5.354-5.2041,7.98096-13.13086,14.13916-17.53418c0.8916,0,1.7832,0,2.6748,0c3.71729,1.57715,7.67041,3.6875,12.22705,5.71777
		c3.24951,1.44824,10.19629,3.15527,11.08203,6.86133c0.65771,2.75293-0.82764,6.96387-1.52881,10.29199
		c-0.67871,3.22754-1.47314,6.20898-2.29248,9.14844c2.01074,2.18945,4.56592,3.83203,6.11475,6.48047
		c3.05664-0.89648,6.17139-1.53125,9.55225-2.28809c3.29736-0.73438,7.49463-2.24414,10.31738-1.52441
		c3.78369,0.96484,4.97949,7.31934,6.49658,10.67383c1.9292,4.26758,4.11572,7.93066,5.73145,11.43555
		c0,1.52539,0,3.04883,0,4.57422c-5.04395,5.00488-11.81934,8.28613-17.1958,12.96094c0,2.41504,0,4.82715,0,7.24219
		c5.26855,4.90918,12.53857,7.82129,17.1958,13.3418c0,1.39746,0,2.79492,0,4.19336
		c-2.23291,3.47852-3.271,7.25977-5.34961,11.81641c-1.45068,3.18164-3.73291,9.47949-6.87842,10.29297
		c-3.96143,1.02246-10.60645-1.81445-14.52002-2.66992c-1.43408-0.3125-3.97705-0.87012-4.58643-0.76172
		c-3.09814,0.54785-3.66406,4.78027-6.87793,5.71777c0.69727,3.11133,1.61182,6.27344,2.29248,9.53027
		c0.70166,3.35547,2.17334,7.56055,1.52881,10.29199c-0.91162,3.86621-7.73975,5.34668-11.08203,6.86133
		c-4.46484,2.02441-8.18799,4.04688-11.84521,5.71777c-1.01953,0-2.03857,0-3.05664,0
		c-6.13623-4.42578-8.85498-12.25977-14.13916-17.53418c-2.38037,1.20898-4.57617-0.55371-6.49609,0
		c-2.08789,0.60156-5.89111,6.82813-7.26025,8.76758c-2.54395,3.59863-3.99658,7.20313-7.26074,8.7666
		c-1.01855,0-2.03711,0-3.05664,0c-3.36426-1.96289-7.53223-3.37891-11.84521-5.33691
		c-3.01465-1.36914-10.55225-4.00586-11.08203-7.24219c-0.87109-5.32617,3.15283-13.35156,3.82129-19.44043
		c-2.33447-1.86621-4.12305-4.27441-6.49609-6.09961c-3.20264,0.69336-6.23877,1.18848-9.55371,1.90723
		c-3.22607,0.69922-7.03955,2.27051-9.93457,1.52441c-3.25488-0.8418-5.50488-7.2832-6.87842-10.29297
		c-1.99219-4.36426-3.20898-8.52539-5.34912-11.81641c0-1.39844,0-2.7959,0-4.19336
		c4.71045-5.33887,11.49268-8.6123,17.19531-12.95996c0-2.54199,0-5.08398,0-7.62402
		c-5.4165-4.63672-12.13037-7.97656-17.19531-12.96094c0-1.52539,0-3.04883,0-4.57422
		c1.72363-3.34375,3.77588-7.4707,5.73096-11.81641c1.67578-3.72363,3.01123-9.50098,6.87842-10.29297
		c6.03369-1.23535,11.5332,3.39355,19.10645,3.43164c1.75879-0.91895,4.2959-4.35156,6.49609-6.09961
		c-0.81982-2.93945-1.61377-5.9209-2.29248-9.14844c-0.70117-3.32813-2.18652-7.53906-1.52881-10.29199
		c0.71289-2.98535,7.0332-5.40625,10.31689-6.86133C56.9292,10.53027,61.57422,8.94141,64.40479,7.08594z M99.56104,28.05176
		c-2.00732,2.90332-3.61084,6.97754-7.26074,7.62207c-1.29346,0.23047-3.16455-0.30762-4.58594-0.37988
		c-3.69629-0.18652-8.1582,0.83594-10.31738,0.37988c-5.60352-1.17871-9.71777-14.07715-13.37402-16.38965
		c-3.36279,1.85547-7.1626,3.27344-10.69971,4.95508c0.1333,3.13672,1.34375,6.01855,1.91113,8.76758
		c0.63232,3.06836,2.03613,6.87305,1.52783,9.5293c-0.54443,2.85156-4.7627,4.77441-6.87793,6.86133
		c-2.09912,2.07227-3.91797,6.50098-7.26025,7.24219c-3.04492,0.67578-6.44385-0.88672-9.55322-1.52441
		c-3.34912-0.68359-6.39502-0.87891-9.17188-1.90527c-1.1123,4.09863-3.38965,7.03711-4.58447,11.05469
		c2.30176,1.96387,5.28223,3.86328,8.40625,6.09863c2.41699,1.72949,6.91602,3.73145,7.64258,6.8623
		c1.07373,4.62012-1.37842,9.71484,0,16.00879c-4.00244,5.66309-11.43262,7.9082-16.04883,12.96094
		c1.41455,3.6709,3.4043,6.77051,4.58447,10.67285c5.44385,0.04102,13.48291-4.96094,19.10742-3.42969
		c2.61475,0.71094,4.75342,5.10449,6.11328,6.47949c2.63281,2.66113,7.13574,4.70801,7.64258,8.00488
		c0.40332,2.61914-0.93066,6.25586-1.52783,9.14844c-0.58691,2.83594-1.62109,5.6123-1.91113,8.76758
		c3.6123,1.73242,7.31152,3.37891,11.08154,4.95508c1.47705-3.13965,3.8335-5.46777,6.11377-8.76758
		c2.00049-2.89258,3.61377-6.99512,7.26025-7.62207c2.99316-0.51563,7.79248,0.58301,11.08154,0.37988
		c1.35547-0.08398,2.91895-0.56934,3.82178-0.37988c3.30859,0.6875,5.09082,5.03516,6.87891,7.62207
		c2.18213,3.1582,4.72119,5.75879,6.11328,8.76758c3.77002-1.57617,7.46924-3.22266,11.08154-4.95508
		c-0.28076-3.11426-1.33252-5.9707-1.91113-8.76758c-0.63916-3.09961-2.03027-6.9043-1.52783-9.5293
		c0.58789-3.08008,5.01123-4.96484,7.64209-7.62402c1.39209-1.40723,3.57715-5.81836,6.49609-6.47949
		c2.99121-0.68164,6.42773,0.84766,9.55273,1.52441c3.26709,0.70703,6.34424,1.06934,9.17139,1.90527
		c1.14795-4.06348,3.40137-7.02539,4.58545-11.05469c-2.44385-1.80371-5.26074-3.92969-8.40625-6.09863
		c-2.48145-1.71094-6.90625-3.69336-7.64258-6.8623c-1.07373-4.62012,1.37842-9.71484,0-16.00879
		c4.02295-5.64258,11.4917-7.85156,16.04883-12.96094c-1.64795-3.56445-3.1626-7.26465-4.96777-10.67285
		c-2.63428,0.71094-5.60938,1.63281-8.78906,2.28711c-3.07666,0.63379-7.23926,1.86328-9.93506,1.14258
		c-3.0542-0.81641-5.10303-5.49023-6.87842-7.24219c-2.44922-2.41699-6.40771-4.10352-6.87744-7.24219
		c-0.39209-2.61719,0.93506-6.27246,1.52783-9.14844c0.58398-2.82617,1.70068-5.58496,1.91113-8.76758
		c-3.7002-1.64551-7.35889-3.33203-11.08154-4.95508C104.18799,22.43555,101.8457,24.74414,99.56104,28.05176z"/>
	<path fill-rule="evenodd" clip-rule="evenodd" d="M81.98242,50.54102c10.0459-1.07031,18.83154,2.83594,24.83789,7.62402
		c7.55859,6.02539,15.56689,17.31445,12.61035,33.54492c-3.50684,19.25684-25.60254,34.59961-47.3833,25.9209
		C58.94092,112.4082,46.7832,96.91211,50.64844,77.60547C53.45264,63.59961,65.99805,52.24609,81.98242,50.54102z
		 M67.84375,68.07617c-3.24463,3.23633-6.9375,8.43555-6.87793,17.1543c0.10205,14.87988,12.99756,25.36621,27.5127,23.63281
		c10.42871-1.24609,20.72852-10.32813,20.63477-24.01563c-0.04199-6.04688-4.02295-13.92285-6.87842-16.77148
		c-3.95215-3.94238-11.7749-7.7627-20.63428-6.47949C75.20117,62.52246,71.09863,64.82813,67.84375,68.07617z"/>
</g>
</svg>
