<?xml version="1.0" encoding="utf-8"?>
<!-- Generator: Adobe Illustrator 15.0.0, SVG Export Plug-In . SVG Version: 6.00 Build 0)  -->
<!DOCTYPE svg PUBLIC "-//W3C//DTD SVG 1.1//EN" "http://www.w3.org/Graphics/SVG/1.1/DTD/svg11.dtd">
<svg version="1.1" id="Layer_1" xmlns="http://www.w3.org/2000/svg" xmlns:xlink="http://www.w3.org/1999/xlink" x="0px" y="0px"
	 width="170.08px" height="170.08px" viewBox="0 0 170.08 170.08" style="enable-background:new 0 0 170.08 170.08;"
	 xml:space="preserve">
<path style="fill-rule:evenodd;clip-rule:evenodd;" d="M138.89,62.01h-59.5v-9.13c0-19.54-15.9-35.43-35.43-35.43
	S8.52,33.35,8.52,52.88v10.73h14.17V52.88c0-11.72,9.54-21.26,21.26-21.26s21.26,9.54,21.26,21.26v9.13h-2.81
	c-8.57,0-15.59,7.02-15.59,15.59v63.68c0,8.58,7.02,15.59,15.59,15.59h76.49c8.57,0,15.59-7.02,15.59-15.59V77.6
	C154.48,69.03,147.46,62.01,138.89,62.01z"/>
</svg>
