<?xml version="1.0" encoding="utf-8"?>
<!-- Generator: Adobe Illustrator 15.0.0, SVG Export Plug-In . SVG Version: 6.00 Build 0)  -->
<!DOCTYPE svg PUBLIC "-//W3C//DTD SVG 1.1//EN" "http://www.w3.org/Graphics/SVG/1.1/DTD/svg11.dtd">
<svg version="1.1" id="Layer_1" xmlns="http://www.w3.org/2000/svg" xmlns:xlink="http://www.w3.org/1999/xlink" x="0px" y="0px"
	 width="170.08px" height="170.08px" viewBox="0 0 170.08 170.08" style="enable-background:new 0 0 170.08 170.08;"
	 xml:space="preserve">
<path style="fill-rule:evenodd;clip-rule:evenodd;" d="M123.28,62.01h-2.81v-9.13c0-19.54-15.9-35.43-35.43-35.43
	s-35.43,15.9-35.43,35.43v9.13h-2.81c-8.57,0-15.59,7.02-15.59,15.59v63.68c0,8.58,7.02,15.59,15.59,15.59h76.49
	c8.57,0,15.59-7.02,15.59-15.59V77.6C138.87,69.03,131.86,62.01,123.28,62.01z M63.78,52.88c0-11.72,9.54-21.26,21.26-21.26
	s21.26,9.54,21.26,21.26v9.13H63.78V52.88z"/>
<path style="fill-rule:evenodd;clip-rule:evenodd;fill:#FFFFFF;" d="M77.68,130.16c10.2-10.58,19.72-20,28.62-29.99
	c2.06-2.31,2-6.5,2.92-9.83c-3.74,0.92-8.66,0.66-10.97,2.98c-6.68,6.68-12.32,14.4-18.37,21.7c-0.88-1.25-1.77-2.5-2.65-3.76
	c-5.36-1.46-10.72-2.92-16.09-4.39c2.67,5.24,5.07,10.63,8.12,15.65C70.63,124.77,73.28,126.26,77.68,130.16"/>
</svg>
