<?xml version="1.0" encoding="utf-8"?>
<!-- Generator: Adobe Illustrator 15.0.0, SVG Export Plug-In . SVG Version: 6.00 Build 0)  -->
<!DOCTYPE svg PUBLIC "-//W3C//DTD SVG 1.1//EN" "http://www.w3.org/Graphics/SVG/1.1/DTD/svg11.dtd">
<svg version="1.1" id="Layer_1" xmlns="http://www.w3.org/2000/svg" xmlns:xlink="http://www.w3.org/1999/xlink" x="0px" y="0px"
	 width="170.08px" height="170.08px" viewBox="0 0 170.08 170.08" style="enable-background:new 0 0 170.08 170.08;"
	 xml:space="preserve">
<path d="M32.65,81.5c2.18-24.56,10.4-34.73,26.13-34.39c15.41,0.33,23.05,12,25.04,34.92c15.27,1.82,14.14,11.13,14.34,23.13
	c0.19,11.75-0.36,22.44-0.04,32.95c0.29,9.4-3.47,14.37-13.21,14.32c-18.7-0.09-36.22-0.08-53.24-0.01
	c-9.65,0.04-13.38-4.73-13.42-14.2c-0.05-12.86-0.1-25.26-0.04-38.02C18.25,89.61,19.29,81.09,32.65,81.5 M73.9,81.92
	c0-5.34,0.36-8.28-0.07-11.1c-1.34-8.72-8.32-14.86-16.11-14.55c-7.96,0.32-13.94,6.82-14.96,15.75c-1.37,12.05-2,10.13,8.74,9.97
	C58.47,81.9,65.45,81.92,73.9,81.92"/>
<path d="M151.86,75.71c-0.2-12,0.93-21.32-14.34-23.13c-1.99-22.91-9.63-34.59-25.04-34.92c-15.73-0.33-23.96,9.83-26.13,34.39
	c-2.15-0.07-3.98,0.1-5.55,0.47c5.6,7.76,7.46,17.91,8.24,24.7c14.56,3.72,14.66,15.57,14.75,25.27c0.01,0.84,0.02,1.7,0.03,2.57
	c0.09,5.56,0.02,10.86-0.05,15.99c-0.01,0.63-0.02,1.24-0.02,1.86c11.25-0.02,22.81,0,34.86,0.06c9.75,0.04,13.5-4.92,13.21-14.32
	C151.5,98.15,152.05,87.46,151.86,75.71z M127.61,52.47c-8.45,0-15.44-0.03-22.4,0.07c-10.74,0.16-10.11,2.08-8.74-9.97
	c1.01-8.93,7-15.42,14.95-15.75c7.79-0.31,14.78,5.83,16.11,14.55C127.97,44.19,127.61,47.13,127.61,52.47z"/>
</svg>
