<?xml version="1.0" encoding="utf-8"?>
<!-- Generator: Adobe Illustrator 22.1.0, SVG Export Plug-In . SVG Version: 6.00 Build 0)  -->
<svg version="1.1" id="Layer_1" xmlns="http://www.w3.org/2000/svg" xmlns:xlink="http://www.w3.org/1999/xlink" x="0px" y="0px"
	 viewBox="0 0 170.08 170.08" style="enable-background:new 0 0 170.08 170.08;" xml:space="preserve">
<path d="M75.56,113.39l17.6-17.6c-0.75-1.14-1.22-2.47-1.35-3.92c-0.01-0.1-0.01-0.19-0.02-0.29L91.02,71
	c-0.06-2.02,0.03-3.69,0.25-5.14c-0.52,0.37-1.02,0.77-1.49,1.24L59.53,97.35L29.28,67.1c-4.43-4.43-11.61-4.43-16.04,0
	s-4.43,11.61,0,16.04l30.25,30.25l-30.25,30.25c-4.43,4.43-4.43,11.61,0,16.04c4.43,4.43,11.61,4.43,16.04,0l30.25-30.25
	l30.25,30.25c2.21,2.21,5.12,3.32,8.02,3.32s5.8-1.11,8.02-3.32c4.43-4.43,4.43-11.61,0-16.04L75.56,113.39z"/>
<path d="M145.94,41.58c0,4.77-0.68,9.07-2.05,12.9c-1.37,3.84-3.28,7.15-5.75,9.94c-2.47,2.79-5.44,5.03-8.89,6.71
	c-3.46,1.69-7.28,2.76-11.46,3.23l-0.7,17c-0.06,1.05-0.89,1.83-2.48,2.35c-1.6,0.52-3.91,0.79-6.93,0.79
	c-1.92,0-3.53-0.04-4.84-0.13c-1.31-0.09-2.34-0.25-3.1-0.48c-0.76-0.23-1.31-0.55-1.66-0.96c-0.35-0.41-0.55-0.93-0.61-1.57
	l-0.78-20.58c-0.06-1.86,0.03-3.37,0.26-4.53c0.23-1.16,0.65-2.09,1.26-2.79c0.61-0.7,1.38-1.18,2.31-1.44
	c0.93-0.26,2.03-0.39,3.31-0.39h1.22c3.08,0,5.74-0.49,7.98-1.48c2.24-0.99,4.08-2.29,5.54-3.92c1.45-1.63,2.51-3.54,3.18-5.75
	c0.67-2.21,1-4.56,1-7.06c0-2.79-0.39-5.35-1.18-7.67c-0.78-2.32-1.98-4.33-3.57-6.02c-1.6-1.69-3.6-2.98-6.02-3.88
	c-2.41-0.9-5.25-1.35-8.5-1.35c-2.96,0-5.58,0.29-7.85,0.87c-2.27,0.58-4.21,1.22-5.84,1.92c-1.63,0.7-2.98,1.34-4.05,1.92
	c-1.08,0.58-1.9,0.87-2.48,0.87c-0.41,0-0.78-0.13-1.13-0.39s-0.64-0.74-0.87-1.44c-0.23-0.7-0.42-1.68-0.57-2.96
	c-0.15-1.28-0.22-2.91-0.22-4.88c0-2.03,0.09-3.52,0.26-4.45c0.17-0.93,0.55-1.68,1.13-2.27c0.58-0.58,1.69-1.26,3.31-2.05
	c1.63-0.79,3.57-1.51,5.84-2.18c2.27-0.67,4.79-1.23,7.58-1.7c2.79-0.46,5.7-0.7,8.72-0.7c6.86,0,12.73,0.95,17.61,2.83
	c4.88,1.89,8.88,4.43,11.99,7.63c3.11,3.2,5.39,6.86,6.84,10.99C145.21,32.63,145.94,36.99,145.94,41.58z M120.13,116.3
	c0,2.38-0.19,4.39-0.57,6.02c-0.38,1.63-1.05,2.94-2.01,3.92c-0.96,0.99-2.24,1.7-3.84,2.14c-1.6,0.44-3.56,0.65-5.88,0.65
	c-2.44,0-4.45-0.22-6.02-0.65c-1.57-0.44-2.83-1.15-3.79-2.14c-0.96-0.99-1.63-2.29-2-3.92c-0.38-1.63-0.57-3.63-0.57-6.02
	c0-2.44,0.19-4.49,0.57-6.15c0.38-1.66,1.05-2.99,2-4.01c0.96-1.02,2.22-1.74,3.79-2.18s3.57-0.65,6.02-0.65
	c2.32,0,4.29,0.22,5.88,0.65c1.6,0.44,2.88,1.16,3.84,2.18c0.96,1.02,1.63,2.35,2.01,4.01C119.94,111.81,120.13,113.85,120.13,116.3
	z"/>
</svg>
