<?xml version="1.0" encoding="utf-8"?>
<!-- Generator: Adobe Illustrator 15.0.0, SVG Export Plug-In . SVG Version: 6.00 Build 0)  -->
<!DOCTYPE svg PUBLIC "-//W3C//DTD SVG 1.1//EN" "http://www.w3.org/Graphics/SVG/1.1/DTD/svg11.dtd">
<svg version="1.1" id="Layer_1" xmlns="http://www.w3.org/2000/svg" xmlns:xlink="http://www.w3.org/1999/xlink" x="0px" y="0px"
	 width="170.08px" height="170.08px" viewBox="0 0 170.08 170.08" style="enable-background:new 0 0 170.08 170.08;"
	 xml:space="preserve">
<path style="fill-rule:evenodd;clip-rule:evenodd;" d="M66.72,106.87c0-15.17,7.23-28.69,18.41-37.3c-1.72-1.71-3.51-3.29-5.41-4.7
	c-0.73-0.54-1.27-0.47-1.95,0.23c-4.44,4.65-9.3,7.3-14.48,7.92c-7.08,0.85-13.68-1.92-19.77-8.2c-0.32-0.32-0.87-0.38-1.21-0.13
	c-5.41,3.72-10.23,9.08-14.42,16.01c-7.66,12.64-12.37,28.07-14.6,45.77c-0.55,4.33-0.85,8.75-1.25,13c0.25,0.25,0.3,0.32,0.36,0.35
	c7.62,3.34,15.35,5.67,23.17,6.92c6.6,1.05,13.24,1.5,19.86,2.22c0.32,0.04,0.63,0.17,0.95,0.26h8.9c0.47-0.09,0.95-0.25,1.43-0.29
	c5.27-0.51,10.56-0.79,15.83-1.54c1.92-0.27,3.83-0.61,5.74-0.99C75.32,138,66.72,123.42,66.72,106.87z"/>
<path style="fill-rule:evenodd;clip-rule:evenodd;" d="M62.17,20.86c1.3,0.25,2.63,0.45,3.92,0.76c8.8,2.18,15.46,10.33,16.36,19.7
	c1.07,11.04-5.71,21.37-16.12,24.24c-12.34,3.4-25-5.03-27.05-18.11c-1.94-12.33,5.7-23.78,17.44-26.15
	c0.88-0.18,1.77-0.3,2.65-0.45H62.17z"/>
<circle style="fill-rule:evenodd;clip-rule:evenodd;" cx="113.79" cy="106.87" r="39.99"/>
<rect x="87.02" y="102.62" style="fill:#FFFFFF;" width="53.55" height="8.5"/>
</svg>
